<svg width="24" height="24" viewBox="0 0 24 24" fill="none" xmlns="http://www.w3.org/2000/svg">
<path d="M20.1845 15.0137C19.3171 14.1574 18.2342 14.1574 17.3724 15.0137C16.715 15.6656 16.0575 16.3175 15.4111 16.9805C15.2343 17.1628 15.0852 17.2014 14.8697 17.0799C14.4443 16.8479 13.9913 16.66 13.5824 16.4059C11.6764 15.2071 10.0798 13.6657 8.66543 11.931C7.96379 11.0692 7.3395 10.1466 6.90304 9.10795C6.81465 8.89802 6.83122 8.7599 7.00249 8.58864C7.65993 7.95331 8.3008 7.30141 8.94719 6.64951C9.84772 5.74348 9.84772 4.68277 8.94167 3.77121C8.42787 3.2519 7.91407 2.74364 7.40027 2.22433C6.8699 1.69397 6.34505 1.15809 5.80915 0.633256C4.94177 -0.212004 3.85892 -0.212004 2.99707 0.63878C2.3341 1.29068 1.69876 1.95915 1.02474 2.6C0.400446 3.19113 0.0855372 3.91485 0.0192405 4.76011C-0.0857292 6.13573 0.251279 7.434 0.726405 8.69913C1.69876 11.3178 3.17938 13.6436 4.97492 15.7761C7.40027 18.6599 10.2952 20.9416 13.6819 22.5879C15.2067 23.3282 16.7868 23.8972 18.505 23.9911C19.6872 24.0574 20.7148 23.7591 21.538 22.8365C22.1016 22.2067 22.7369 21.6322 23.3336 21.03C24.2175 20.135 24.223 19.0522 23.3446 18.1682C22.2949 17.1131 21.2397 16.0634 20.1845 15.0137Z" fill="white"/>
</svg>
