<svg width="22" height="24" viewBox="0 0 22 24" fill="none" xmlns="http://www.w3.org/2000/svg">
<path fill-rule="evenodd" clip-rule="evenodd" d="M11 0C7.54677 0 4.74737 2.77626 4.74737 6.20096V9.07303C3.32646 9.08018 2.52853 9.12796 1.89666 9.44725C1.24305 9.77753 0.711643 10.3045 0.378609 10.9528C0 11.6897 0 12.6544 0 14.5837V18.488C0 20.4174 0 21.3821 0.378609 22.119C0.711643 22.7672 1.24305 23.2942 1.89666 23.6245C2.63973 24 3.61245 24 5.5579 24H16.4421C18.3875 24 19.3603 24 20.1033 23.6245C20.757 23.2942 21.2884 22.7672 21.6214 22.119C22 21.3821 22 20.4174 22 18.488V14.5837C22 12.6544 22 11.6897 21.6214 10.9528C21.2884 10.3045 20.757 9.77753 20.1033 9.44725C19.4715 9.12796 18.6735 9.08018 17.2526 9.07303V6.20096C17.2526 2.77626 14.4532 0 11 0ZM15.1684 9.07177V6.20096C15.1684 3.91783 13.3022 2.06699 11 2.06699C8.69784 2.06699 6.83158 3.91783 6.83158 6.20096V9.07177H15.1684ZM12.1579 17.377C12.8501 16.9799 13.3158 16.2376 13.3158 15.3876C13.3158 14.1192 12.279 13.0909 11 13.0909C9.72102 13.0909 8.68421 14.1192 8.68421 15.3876C8.68421 16.2376 9.14991 16.9799 9.8421 17.377V19.4067C9.8421 20.0409 10.3605 20.555 11 20.555C11.6395 20.555 12.1579 20.0409 12.1579 19.4067V17.377Z" fill="white"/>
</svg>
