<svg width="112" height="181" viewBox="0 0 112 181" fill="none" xmlns="http://www.w3.org/2000/svg">
<g opacity="0.05">
<path d="M5.04535 53.2549C5.04535 66.7802 31.9485 73.8589 58.5227 73.8589C85.0968 73.8589 112 66.7802 112 53.2549C112 26.2041 5.04535 26.2041 5.04535 53.2549Z" fill="#AA40E1"/>
<path d="M110.015 73.211C108.79 72.4705 107.251 72.4181 105.978 73.0864C94.8986 78.8974 78.0463 82.1007 58.5227 82.1007C38.999 82.1007 22.1467 78.8974 11.0673 73.0864C9.79389 72.4185 8.25513 72.4705 7.02991 73.211C5.79659 73.9553 5.04535 75.2954 5.04535 76.7362V77.9796C5.04535 91.5048 31.9485 98.5835 58.5227 98.5835C85.0968 98.5835 112 91.5048 112 77.9796V76.7362C112 75.2954 111.248 73.9553 110.015 73.211Z" fill="#AA40E1"/>
<path d="M-44.3182 135.671C-44.3182 149.197 -17.4151 156.275 9.1591 156.275C35.7333 156.275 62.6364 149.196 62.6364 135.671C62.636 108.62 -44.3182 108.62 -44.3182 135.671Z" fill="#AA40E1"/>
<path d="M60.6519 155.627C59.4224 154.891 57.8879 154.835 56.6145 155.503C45.535 161.314 28.6828 164.517 9.1591 164.517C-10.3646 164.517 -27.2168 161.314 -38.2962 155.503C-39.5697 154.835 -41.1084 154.891 -42.3336 155.627C-43.567 156.372 -44.3182 157.712 -44.3182 159.153V160.396C-44.3182 173.922 -17.4151 181 9.1591 181C35.7333 181 62.6364 173.921 62.6364 160.396V159.153C62.636 157.712 61.8848 156.372 60.6519 155.627Z" fill="#AA40E1"/>
<path d="M-15.5227 40.8924C-9.96696 40.8924 -4.41086 40.5785 0.992134 39.9549C1.87181 39.8543 2.69556 39.4721 3.3423 38.8643C9.57291 32.9889 20.2185 28.6549 34.1263 26.3329C35.5968 26.0872 36.822 25.0652 37.3241 23.6568C37.7499 22.4698 37.9547 21.3672 37.9547 20.2885C37.9543 -6.76277 -69 -6.76277 -69 20.2881C-69 33.8138 -42.0969 40.8924 -15.5227 40.8924Z" fill="#AA40E1"/>
<path d="M-15.5227 65.6171C-12.1162 65.6171 -8.79381 65.5002 -5.57592 65.287C-4.2782 65.1983 -3.10119 64.5064 -2.39429 63.4115C-1.69124 62.3209 -1.54276 60.9568 -1.99243 59.7374C-2.79189 57.5843 -3.1814 55.4636 -3.16135 53.0332C-3.16135 51.9063 -3.62336 50.828 -4.43902 50.0513C-5.25043 49.2746 -6.39543 48.8037 -7.47217 48.9163C-10.1598 49.0452 -12.8474 49.1335 -15.5227 49.1335C-35.0463 49.1335 -51.8986 45.9302 -62.978 40.1192C-64.2515 39.4513 -65.7902 39.5037 -67.0154 40.2438C-68.2487 40.9889 -69 42.329 -69 43.7698V45.0131C-69 58.5388 -42.0969 65.6171 -15.5227 65.6171Z" fill="#AA40E1"/>
<path d="M-15.5227 90.3421C-12.1162 90.3421 -8.79381 90.2253 -5.57592 90.012C-4.2782 89.9233 -3.10119 89.2314 -2.39429 88.1365C-1.69124 87.0459 -1.54276 85.6819 -1.99243 84.4624C-2.79189 82.3093 -3.1814 80.1886 -3.1814 77.7582C-3.1814 76.6313 -3.64342 75.5531 -4.45907 74.7764C-5.27048 73.9996 -6.39543 73.5569 -7.49223 73.6414C-10.1717 73.7702 -12.8513 73.8585 -15.5227 73.8585C-35.0463 73.8585 -51.8986 70.6553 -62.978 64.8442C-64.2515 64.1763 -65.7902 64.2287 -67.0154 64.9688C-68.2487 65.7139 -69 67.054 -69 68.4944V69.7378C-69 83.2634 -42.0969 90.3421 -15.5227 90.3421Z" fill="#AA40E1"/>
<path d="M110.015 122.661C108.782 121.908 107.251 121.868 105.978 122.536C98.2368 126.597 87.346 129.433 74.4872 130.734C72.3179 130.955 70.7714 133.49 70.8636 135.671C70.8636 137.76 70.5261 139.756 69.835 141.764C69.3769 143.096 69.6302 144.573 70.5061 145.676C71.2936 146.662 72.4787 147.229 73.724 147.229C73.8686 147.229 74.017 147.221 74.1659 147.205C97.8554 144.645 112 137.253 112 127.43V126.186C112 124.745 111.248 123.405 110.015 122.661Z" fill="#AA40E1"/>
<path d="M9.1591 106.825L11.8868 106.874C11.9111 106.874 11.935 106.874 11.9593 106.874C13.8795 106.874 15.5467 105.541 15.9724 103.662C16.4024 101.755 15.4383 99.8111 13.6624 99.002L12.7827 98.6074C12.1961 98.3498 11.6057 98.0922 11.0592 97.8064C9.77769 97.1342 8.25938 97.1948 7.02606 97.9391C5.7966 98.6834 5.04573 100.02 5.04573 101.46V102.703C5.04535 104.982 6.8853 106.825 9.1591 106.825Z" fill="#AA40E1"/>
<path d="M110.015 97.936C108.79 97.1955 107.251 97.1431 105.978 97.8114C94.8986 103.622 78.0463 106.826 58.5227 106.826L55.8069 106.773C54.1478 106.632 52.1633 108.093 51.7413 109.997C51.3156 111.9 52.2797 113.84 54.0514 114.644C58.5065 116.673 62.1463 119.083 64.8659 121.808C65.641 122.58 66.6858 123.011 67.7745 123.011C67.8589 123.011 67.9473 123.007 68.0356 123.003C88.3144 121.715 112 115.626 112 102.705V101.461C112 100.02 111.248 98.6803 110.015 97.936Z" fill="#AA40E1"/>
<path d="M-34.5967 113.788C-34.0826 113.788 -33.5681 113.691 -33.0822 113.498C-25.835 110.629 -16.9974 108.653 -6.80962 107.627C-4.64033 107.41 -3.08961 104.665 -3.18217 102.484C-3.18217 101.357 -3.64419 100.278 -4.45984 99.5018C-5.27126 98.7251 -6.3962 98.3105 -7.493 98.3668C-10.1725 98.4956 -12.852 98.5839 -15.5235 98.5839C-35.0471 98.5839 -51.8994 95.3807 -62.9788 89.5696C-64.2522 88.9017 -65.791 88.9541 -67.0162 89.6942C-68.2487 90.4389 -69 91.7787 -69 93.2195V94.4628C-69 103.57 -56.3537 110.781 -35.1671 113.747C-34.9781 113.775 -34.7853 113.788 -34.5967 113.788Z" fill="#AA40E1"/>
</g>
</svg>
