<svg width="16" height="14" viewBox="0 0 16 14" fill="none" xmlns="http://www.w3.org/2000/svg">
<path d="M14.0938 2.34375C14.0938 1.05147 13.0423 0 11.75 0H4.25C2.95772 0 1.90625 1.05147 1.90625 2.34375V4.6875H0V6.5625H16V4.6875H14.0938V2.34375ZM13.1562 4.6875H2.84375V2.34375C2.84375 1.56831 3.47456 0.9375 4.25 0.9375H11.75C12.5254 0.9375 13.1562 1.56831 13.1562 2.34375V4.6875Z" fill="#333333"/>
<path d="M14.9597 7.5H1.04053L1.97821 13.125H14.022L14.9597 7.5ZM5.65634 11.7188H4.71884V8.90625H5.65634V11.7188ZM8.46884 11.7188H7.53134V8.90625H8.46884V11.7188ZM11.2813 11.7188H10.3438V8.90625H11.2813V11.7188Z" fill="#333333"/>
</svg>
