<svg width="16" height="16" viewBox="0 0 16 16" fill="none" xmlns="http://www.w3.org/2000/svg">
<path d="M1.66666 6.52981C0.748 6.52981 0 7.26245 0 8.16225V13.3861C0 14.2859 0.748 15.0186 1.66666 15.0186H3.66666C4.042 15.0186 4.38731 14.8945 4.66666 14.6881V6.52981H1.66666Z" fill="#fff"/>
<path d="M16 8.97849C16 8.58605 15.8413 8.22037 15.566 7.95068C15.8773 7.61702 16.036 7.16971 15.9927 6.70415C15.9147 5.8742 15.1513 5.22383 14.254 5.22383H10.136C10.34 4.6172 10.6667 3.50519 10.6667 2.61192C10.6667 1.1956 9.438 0 8.66666 0C7.974 0 7.47931 0.381994 7.458 0.397666C7.37934 0.459709 7.33334 0.553739 7.33334 0.652971V2.86722L5.41334 6.94118L5.33334 6.98101V13.9797C5.876 14.2304 6.56266 14.3656 7 14.3656H13.1193C13.8453 14.3656 14.4807 13.8863 14.63 13.2248C14.7067 12.8846 14.662 12.5418 14.5093 12.244C15.002 12.0011 15.3333 11.5042 15.3333 10.9374C15.3333 10.7063 15.2793 10.4849 15.1767 10.2845C15.6693 10.0415 16 9.54462 16 8.97849Z" fill="#fff"/>
</svg>
