<svg width="18" height="15" viewBox="0 0 18 15" fill="none" xmlns="http://www.w3.org/2000/svg">
<path d="M14.3086 0H3.69141C1.65591 0 0 1.65591 0 3.69141V9.39276C0 11.017 1.06636 12.4316 2.61159 12.8844L4.39439 14.6673C4.49341 14.7662 4.62744 14.8218 4.76738 14.8218C4.90718 14.8218 5.04135 14.7662 5.14023 14.6673L6.77568 13.0317H14.3086C16.3441 13.0317 18 11.3758 18 9.3403V3.69141C18 1.65591 16.3441 0 14.3086 0ZM16.9453 9.3403C16.9453 10.7942 15.7625 11.977 14.3086 11.977H6.55733C6.41753 11.977 6.28336 12.0326 6.18448 12.1315L4.76738 13.5486L3.25813 12.0394C3.19043 11.9717 3.10556 11.9236 3.01259 11.9005C1.85985 11.6136 1.05469 10.5824 1.05469 9.39276V3.69141C1.05469 2.2375 2.2375 1.05469 3.69141 1.05469H14.3086C15.7625 1.05469 16.9453 2.2375 16.9453 3.69141V9.3403Z" fill="#677075"/>
<path d="M12.3484 5.05646H5.65164C5.36037 5.05646 5.1243 5.29266 5.1243 5.5838C5.1243 5.87508 5.36037 6.11115 5.65164 6.11115H12.3484C12.6396 6.11115 12.8757 5.87508 12.8757 5.5838C12.8757 5.29266 12.6396 5.05646 12.3484 5.05646Z" fill="#677075"/>
<path d="M12.3484 6.92056H5.65164C5.36037 6.92056 5.1243 7.15663 5.1243 7.44791C5.1243 7.73918 5.36037 7.97525 5.65164 7.97525H12.3484C12.6396 7.97525 12.8757 7.73918 12.8757 7.44791C12.8757 7.15663 12.6396 6.92056 12.3484 6.92056Z" fill="#677075"/>
</svg>
