<svg width="18" height="12" viewBox="0 0 18 12" fill="none" xmlns="http://www.w3.org/2000/svg">
<path d="M17.2918 3.77267C17.2945 3.82173 17.2909 3.87167 17.2785 3.92127L16.1682 8.32127C16.1122 8.54293 15.9117 8.6988 15.6811 8.7L9.01945 8.73333C9.01857 8.73333 9.01776 8.73333 9.01689 8.73333H2.35514C2.12339 8.73333 1.92146 8.57693 1.86547 8.35413L0.755192 3.93747C0.742407 3.88653 0.738707 3.8352 0.741936 3.78487C0.312426 3.6508 0 3.2526 0 2.78333C0 2.20433 0.475402 1.73333 1.05981 1.73333C1.64422 1.73333 2.11963 2.20433 2.11963 2.78333C2.11963 3.1094 1.96883 3.40113 1.73271 3.59387L3.12278 4.98147C3.4741 5.3322 3.96161 5.53327 4.46037 5.53327C5.05009 5.53327 5.61237 5.2558 5.96644 4.79093L8.25093 1.792C8.05902 1.602 7.94019 1.33947 7.94019 1.05C7.94019 0.471 8.41559 0 9 0C9.58441 0 10.0598 0.471 10.0598 1.05C10.0598 1.3308 9.9473 1.58567 9.76542 1.77427C9.76603 1.77507 9.76677 1.77573 9.76737 1.7766L12.0353 4.7838C12.3892 5.25313 12.9535 5.53333 13.5449 5.53333C14.0483 5.53333 14.5216 5.33913 14.8775 4.98647L16.2763 3.6006C16.0352 3.40793 15.8804 3.1134 15.8804 2.78333C15.8804 2.20433 16.3558 1.73333 16.9402 1.73333C17.5246 1.73333 18 2.20433 18 2.78333C18 3.24007 17.7036 3.62853 17.2918 3.77267ZM16.0598 10.3C16.0598 10.0239 15.8339 9.8 15.5552 9.8H2.50096C2.22224 9.8 1.99628 10.0239 1.99628 10.3V11.5C1.99628 11.7761 2.22224 12 2.50096 12H15.5552C15.8339 12 16.0598 11.7761 16.0598 11.5V10.3Z" fill="#C0C0C0"/>
</svg>
