<svg width="20" height="20" viewBox="0 0 20 20" fill="none" xmlns="http://www.w3.org/2000/svg">
<path d="M9.16667 0H10.8333V1.66667H9.16667V0Z" fill="#333333"/>
<path d="M14.1667 0H15.8333V1.66667H14.1667V0Z" fill="#333333"/>
<path d="M4.16667 0H5.83333V1.66667H4.16667V0Z" fill="#333333"/>
<path d="M19.1667 1.66667H15.8333V4.16667H14.1667L14.1667 1.66667H10.8333V4.16667H9.16667L9.16667 1.66667H5.83333V4.16667H4.16667V1.66667H0.833333C0.61232 1.66667 0.400358 1.75446 0.244078 1.91074C0.0877974 2.06702 0 2.27899 0 2.5V5.83333H20V2.5C20 2.27899 19.9122 2.06702 19.7559 1.91074C19.5996 1.75446 19.3877 1.66667 19.1667 1.66667Z" fill="#333333"/>
<path d="M0 19.1667C0 19.3877 0.0877974 19.5996 0.244078 19.7559C0.400358 19.9122 0.61232 20 0.833333 20H19.1667C19.3877 20 19.5996 19.9122 19.7559 19.7559C19.9122 19.5996 20 19.3877 20 19.1667V6.66667H0V19.1667ZM15.8333 9.16667H17.5V10.8333H15.8333V9.16667ZM15.8333 12.5H17.5V14.1667H15.8333V12.5ZM12.5 9.16667H14.1667V10.8333H12.5V9.16667ZM12.5 12.5H14.1667V14.1667H12.5V12.5ZM9.16667 9.16667H10.8333V10.8333H9.16667V9.16667ZM9.16667 12.5H10.8333V14.1667H9.16667V12.5ZM5.83333 9.16667H7.5V10.8333H5.83333V9.16667ZM5.83333 12.5H7.5V14.1667H5.83333V12.5ZM5.83333 15.8333H7.5V17.5H5.83333V15.8333ZM2.5 9.16667H4.16667V10.8333H2.5V9.16667ZM2.5 12.5H4.16667V14.1667H2.5V12.5ZM2.5 15.8333H4.16667V17.5H2.5V15.8333Z" fill="#333333"/>
</svg>
