<svg width="91" height="181" viewBox="0 0 91 181" fill="none" xmlns="http://www.w3.org/2000/svg">
<g opacity="0.05">
<path d="M6.08582 62.4162C4.2782 62.0572 2.41119 61.8652 0.5 61.8652C-15.2894 61.8652 -28.1348 74.7106 -28.1348 90.5C-28.1348 106.289 -15.2894 119.135 0.5 119.135C16.2894 119.135 29.1348 106.289 29.1348 90.5C29.1348 88.5888 28.9428 86.7218 28.5838 84.9142L11.749 101.749C8.74409 104.754 4.74909 106.408 0.5 106.408C-3.74909 106.408 -7.74409 104.754 -10.749 101.749C-13.7539 98.7441 -15.4082 94.7491 -15.4082 90.5C-15.4082 86.2509 -13.7539 82.2559 -10.749 79.251L6.08582 62.4162Z" fill="#AA40E1"/>
<path d="M82.9009 53.0936L71.4917 64.5028C70.3497 65.6448 69.0627 66.5921 67.6735 67.3268C70.1868 74.5946 71.5566 82.3899 71.5566 90.5C71.5566 129.681 39.6808 161.557 0.5 161.557C-38.6809 161.557 -70.5566 129.681 -70.5566 90.5C-70.5566 51.3191 -38.6809 19.4434 0.5 19.4434C8.61291 19.4434 16.4123 20.8146 23.6815 23.3293C24.4175 21.9387 25.3579 20.6461 26.4986 19.5069L37.9064 8.0991C26.4986 2.89993 13.8328 0 0.5 0C-49.4023 0 -90 40.5977 -90 90.5C-90 140.402 -49.4023 181 0.5 181C50.4023 181 91 140.402 91 90.5C91 77.1672 88.1001 64.5014 82.9009 53.0936Z" fill="#AA40E1"/>
<path d="M23.0228 45.4792L22.0562 34.0231C15.3573 31.456 8.09092 30.0488 0.5 30.0488C-32.8327 30.0488 -59.9512 57.1673 -59.9512 90.5C-59.9512 123.833 -32.8327 150.951 0.5 150.951C33.8327 150.951 60.9512 123.833 60.9512 90.5C60.9512 82.9091 59.544 75.6427 56.9769 68.9438L45.5208 67.9772L37.1123 76.3842C38.8081 80.7673 39.7402 85.5259 39.7402 90.5C39.7402 112.138 22.1376 129.74 0.5 129.74C-21.1376 129.74 -38.7402 112.138 -38.7402 90.5C-38.7402 68.8624 -21.1376 51.2598 0.5 51.2598C5.47408 51.2598 10.2327 52.1919 14.6158 53.8877L23.0228 45.4792Z" fill="#AA40E1"/>
<path d="M32.4614 31.2019L34.0053 49.4963L-3.2492 86.7508C-5.32058 88.8208 -5.32058 92.1792 -3.2492 94.2492C-2.21489 95.2849 -0.857445 95.8027 0.5 95.8027C1.85744 95.8027 3.21489 95.2849 4.2492 94.2492L41.5037 56.9947L59.7981 58.5372C59.9472 58.5496 60.095 58.5565 60.2441 58.5565C61.6444 58.5565 62.9949 58.0014 63.9933 57.003L86.4899 34.5051C87.9495 33.0468 88.4301 30.8732 87.7217 28.9344C87.0119 26.9956 85.2429 25.6451 83.1868 25.4725L66.9002 24.0984L65.5275 7.81325C65.3535 5.75568 64.003 3.98672 62.0656 3.27831C60.1268 2.56851 57.9532 3.05045 56.4936 4.50871L33.997 27.0067C32.8923 28.1114 32.3302 29.6456 32.4614 31.2019Z" fill="#AA40E1"/>
</g>
</svg>
