<svg width="18" height="12" viewBox="0 0 18 12" fill="none" xmlns="http://www.w3.org/2000/svg">
<path d="M17.8856 5.38616C17.7248 5.16619 13.8934 0 8.99992 0C4.10647 0 0.274852 5.16619 0.114223 5.38595C-0.0380743 5.59464 -0.0380743 5.87769 0.114223 6.08637C0.274852 6.30635 4.10647 11.4725 8.99992 11.4725C13.8934 11.4725 17.7248 6.30631 17.8856 6.08655C18.0381 5.8779 18.0381 5.59464 17.8856 5.38616ZM8.99992 10.2857C5.39538 10.2857 2.27346 6.85682 1.3493 5.73586C2.27226 4.61392 5.38764 1.18681 8.99992 1.18681C12.6043 1.18681 15.726 4.61511 16.6505 5.73667C15.7276 6.85858 12.6122 10.2857 8.99992 10.2857Z" fill="#677075"/>
<path d="M8.99994 2.17554C7.03674 2.17554 5.43948 3.7728 5.43948 5.736C5.43948 7.6992 7.03674 9.29646 8.99994 9.29646C10.9631 9.29646 12.5604 7.6992 12.5604 5.736C12.5604 3.7728 10.9631 2.17554 8.99994 2.17554ZM8.99994 8.10961C7.69107 8.10961 6.62633 7.04483 6.62633 5.736C6.62633 4.42716 7.69111 3.36238 8.99994 3.36238C10.3088 3.36238 11.3736 4.42716 11.3736 5.736C11.3736 7.04483 10.3088 8.10961 8.99994 8.10961Z" fill="#677075"/>
</svg>
