<svg width="7" height="14" viewBox="0 0 7 14" fill="none" xmlns="http://www.w3.org/2000/svg">
<path d="M4.98292 3.46539C4.99976 3.44382 5.07851 3.37332 5.3878 3.37332L6.40185 3.37289C6.73174 3.37289 7 3.06827 7 2.69379V0.681885C7 0.308044 6.73212 0.00341797 6.40279 0.00277709L4.89654 0C3.96689 0 3.1766 0.348099 2.6111 1.00681C2.04814 1.66252 1.75052 2.5779 1.75052 3.65381V4.73891H0.598247C0.268355 4.73891 0 5.04353 0 5.41801V7.58479C0 7.95927 0.268355 8.2639 0.598247 8.2639H1.75052V13.3209C1.75052 13.6954 2.01887 14 2.34876 14H4.32379C4.65368 14 4.92204 13.6954 4.92204 13.3209V8.26401H6.33052C6.66042 8.26401 6.92868 7.95927 6.92868 7.58501L6.92943 5.41812C6.92943 5.17213 6.81153 4.94452 6.62165 4.82414C6.53367 4.76839 6.4313 4.73891 6.32573 4.73891H4.92204V3.88164C4.92204 3.60222 4.95516 3.50107 4.98292 3.46539V3.46539Z" fill="white"/>
</svg>
