<svg width="21" height="21" viewBox="0 0 21 21" fill="none" xmlns="http://www.w3.org/2000/svg">
<path d="M12.0922 16.3382L9.96926 18.4611C7.91741 20.513 4.59072 20.513 2.53888 18.4611C0.487039 16.4093 0.48704 13.0826 2.53888 11.0307L4.66185 8.90778C6.71369 6.85593 10.0404 6.85594 12.0922 8.90778C12.4174 9.23297 12.6911 9.59018 12.9132 9.96926M8.90778 4.66185L11.0307 2.53888C13.0826 0.487038 16.4093 0.487041 18.4611 2.53888C20.513 4.59073 20.513 7.91742 18.4611 9.96926L16.3382 12.0922C14.2863 14.1441 10.9596 14.1441 8.90778 12.0922C8.58259 11.767 8.30894 11.4098 8.08682 11.0307" stroke="#828282" stroke-width="1.8" stroke-linecap="round" stroke-linejoin="round"/>
</svg>
