<svg width="18" height="18" viewBox="0 0 18 18" fill="none" xmlns="http://www.w3.org/2000/svg">
<path d="M13.6862 10.8597C12.4715 10.8597 11.4105 11.4876 10.8011 12.429L7.12678 10.352C7.36353 9.8905 7.50972 9.37668 7.50972 8.82353C7.50972 8.48211 7.44314 8.15906 7.34843 7.84818L11.1717 5.68776C11.7983 6.35973 12.689 6.78733 13.6862 6.78733C15.581 6.78733 17.1176 5.26763 17.1176 3.39367C17.1176 1.5197 15.581 0 13.6862 0C11.7914 0 10.2548 1.5197 10.2548 3.39367C10.2548 3.73508 10.3214 4.05813 10.4161 4.36902L6.59286 6.5301C5.96627 5.85747 5.07549 5.42986 4.07835 5.42986C2.18355 5.42986 0.646973 6.94887 0.646973 8.82353C0.646973 10.6975 2.18355 12.2172 4.07835 12.2172C4.8607 12.2172 5.57305 11.9484 6.15019 11.512L6.13717 11.5385L10.2919 13.8869C10.2788 14.009 10.2548 14.1278 10.2548 14.2534C10.2548 16.1274 11.7914 17.6471 13.6862 17.6471C15.581 17.6471 17.1176 16.1274 17.1176 14.2534C17.1176 12.3794 15.581 10.8597 13.6862 10.8597ZM13.6862 1.35747C14.8234 1.35747 15.745 2.26902 15.745 3.39367C15.745 4.51831 14.8234 5.42986 13.6862 5.42986C12.549 5.42986 11.6274 4.51831 11.6274 3.39367C11.6274 2.26902 12.549 1.35747 13.6862 1.35747ZM4.07835 10.8597C2.9412 10.8597 2.01952 9.9482 2.01952 8.82353C2.01952 7.69888 2.9412 6.78733 4.07835 6.78733C5.21549 6.78733 6.13717 7.69888 6.13717 8.82353C6.13717 9.9482 5.21549 10.8597 4.07835 10.8597ZM13.6862 16.2896C12.549 16.2896 11.6274 15.3781 11.6274 14.2534C11.6274 13.1287 12.549 12.2172 13.6862 12.2172C14.8234 12.2172 15.745 13.1287 15.745 14.2534C15.745 15.3781 14.8234 16.2896 13.6862 16.2896Z" fill="#AA40E1"/>
</svg>
