<svg width="82" height="181" viewBox="0 0 82 181" fill="none" xmlns="http://www.w3.org/2000/svg">
<g opacity="0.05">
<path d="M-1.33632 50.8454C9.10632 50.8454 17.5718 42.3624 17.5718 31.8981C17.5718 21.4339 9.10632 12.9509 -1.33632 12.9509C-11.779 12.9509 -20.2444 21.4339 -20.2444 31.8981C-20.2444 42.3624 -11.779 50.8454 -1.33632 50.8454Z" fill="#AA40E1"/>
<path d="M-18.4617 90.6041L-18.1055 97.6753H-17.116V105.171L-25.0942 120.005L-40.8359 111.648L-47.0161 123.354H-47.0104L-48.6615 126.464L-44.5282 128.669L-42.8771 125.541L-20.7234 137.298L-14.5433 125.603L-14.5659 125.592L-3.57952 105.171H1.17577L6.79617 128L-6.4915 147.667L-6.46323 147.684L-6.4915 147.74L7.1637 157.004L10.398 152.211L7.46338 150.228L20.9433 130.272L20.8698 130.215L14.7066 105.171V97.6753H15.9109L18.2745 66.6367L47.185 49.072L45.076 39.4114L14.52 53.7012H5.5296L-1.67966 62.0756L-8.64581 53.7012L-22.2501 56.2622L-22.2332 56.3982L-51.5961 37.6606L-58.4661 48.4827L-20.4294 72.7447L-18.4617 90.6041Z" fill="#AA40E1"/>
<path d="M75.9594 171.98H-82V181H75.9594V171.98Z" fill="#AA40E1"/>
<path d="M78.2531 0.230688C72.5366 -1.31047 68.5333 5.30746 67.5495 7.13759H41.6018C40.1882 4.76352 36.4224 -0.528561 31.26 0.882282C26.386 2.18547 27.3246 8.77507 28.3141 15.7273C28.7382 18.7303 29.1849 21.8183 29.2018 24.6343C29.2301 27.133 30.1122 29.1785 31.8254 30.714C34.7544 33.326 39.4135 33.7396 42.0541 33.7396C43.1793 33.7396 43.9313 33.6603 44.0501 33.649C47.4596 40.1253 51.0445 43.2869 51.0445 43.2869V45.2134C51.0445 45.2134 52.1923 45.3324 52.5768 45.2134C52.5372 50.4941 49.3595 50.9927 49.3595 50.9927V53.4065H47.16V54.398H46.0121L45.1301 57.112H41.8279V59.8997H67.3289V57.112H64.6658L63.778 54.398H62.6245V53.4065H60.4363V50.9927C60.4363 50.9927 57.2529 50.4941 57.1964 45.2134C57.5752 45.3324 58.7344 45.2134 58.7344 45.2134V43.2869C58.7344 43.2869 62.5341 39.91 66.0341 33.0484C66.3847 33.071 66.8596 33.0937 67.4477 33.0937C70.0883 33.0937 74.7587 32.6858 77.682 30.0624C79.3953 28.5269 80.283 26.4814 80.3056 23.9884C80.3282 21.1837 80.7749 18.0787 81.199 15.0757C82.1998 8.12348 83.1328 1.53388 78.2531 0.230688ZM33.5556 28.7762C32.3965 27.7223 31.8141 26.3568 31.7972 24.6173C31.7689 21.6313 31.3165 18.4413 30.8698 15.3533C30.0443 9.56832 29.2697 4.08926 31.9329 3.36967C36.2924 2.20247 39.7811 9.1547 39.8715 9.35301V9.89695C39.8715 9.89695 40.6349 9.89695 42.1672 9.89695C41.5169 13.2512 40.4992 13.5232 38.441 14.9567C39.176 21.5293 40.9006 26.8894 42.8288 31.1446C40.8215 31.2069 36.1397 31.0823 33.5556 28.7762ZM78.6489 14.7131C78.2079 17.8011 77.7499 20.9911 77.7216 23.9771C77.7047 25.7449 77.1335 27.1047 75.9631 28.1359C73.5996 30.2607 69.4719 30.527 67.2385 30.5157C69.0535 26.3568 70.648 21.1894 71.3492 14.9454C69.291 13.5119 68.2789 13.2399 67.6173 9.88562C69.1496 9.88562 69.9243 9.88562 69.9243 9.88562V8.20847C70.829 6.60498 73.9275 1.73219 77.5972 2.72374C80.2491 3.43767 79.4745 8.92239 78.6489 14.7131Z" fill="#AA40E1"/>
</g>
</svg>
