<svg width="92" height="181" viewBox="0 0 92 181" fill="none" xmlns="http://www.w3.org/2000/svg">
<path opacity="0.05" d="M1.5 0C-48.4033 0 -89 40.5988 -89 90.5C-89 140.401 -48.4033 181 1.5 181C51.4033 181 92 140.401 92 90.5C92 40.5988 51.4033 0 1.5 0ZM29.0435 51.1523C35.5527 51.1523 40.8477 56.4473 40.8477 62.9565C40.8477 69.4658 35.5527 74.7608 29.0435 74.7608C22.5342 74.7608 17.2392 69.4658 17.2392 62.9565C17.2392 56.4473 22.5342 51.1523 29.0435 51.1523ZM-26.0435 51.1523C-19.5342 51.1523 -14.2392 56.4473 -14.2392 62.9565C-14.2392 69.4658 -19.5342 74.7608 -26.0435 74.7608C-32.5527 74.7608 -37.8477 69.4658 -37.8477 62.9565C-37.8477 56.4473 -32.5527 51.1523 -26.0435 51.1523ZM1.5 145.587C-28.8755 145.587 -53.5869 120.875 -53.5869 90.5C-53.5869 87.2395 -50.943 84.5977 -47.6846 84.5977C-44.4263 84.5977 -41.7823 87.2395 -41.7823 90.5C-41.7823 114.366 -22.3658 133.783 1.50036 133.783C25.3665 133.783 44.783 114.366 44.783 90.5C44.783 87.2395 47.427 84.5977 50.6853 84.5977C53.9437 84.5977 56.5876 87.2395 56.5876 90.5C56.5869 120.875 31.8755 145.587 1.5 145.587Z" fill="#AA40E1"/>
</svg>
