<svg width="21" height="21" viewBox="0 0 21 21" fill="none" xmlns="http://www.w3.org/2000/svg">
<path d="M7.21139 10.5C7.81678 10.5 8.30754 10.0092 8.30754 9.40383C8.30754 8.79844 7.81678 8.30768 7.21139 8.30768C6.606 8.30768 6.11523 8.79844 6.11523 9.40383C6.11523 10.0092 6.606 10.5 7.21139 10.5Z" fill="#828282"/>
<path d="M10.5023 16.3461C8.4278 16.3461 6.68309 14.9974 6.1309 13.1568C6.11545 13.102 6.11302 13.0444 6.12379 12.9885C6.13455 12.9326 6.15823 12.88 6.19292 12.8349C6.22761 12.7898 6.27236 12.7534 6.3236 12.7287C6.37484 12.7039 6.43116 12.6914 6.48806 12.6923H14.5124C14.5693 12.6914 14.6256 12.7039 14.6768 12.7287C14.7281 12.7534 14.7728 12.7898 14.8075 12.8349C14.8422 12.88 14.8659 12.9326 14.8766 12.9885C14.8874 13.0444 14.885 13.102 14.8695 13.1568C14.3219 14.9974 12.5767 16.3461 10.5023 16.3461Z" fill="#828282"/>
<path d="M13.7895 10.5C14.3949 10.5 14.8857 10.0092 14.8857 9.40383C14.8857 8.79844 14.3949 8.30768 13.7895 8.30768C13.1841 8.30768 12.6934 8.79844 12.6934 9.40383C12.6934 10.0092 13.1841 10.5 13.7895 10.5Z" fill="#828282"/>
<path d="M10.5 20C15.7467 20 20 15.7467 20 10.5C20 5.25329 15.7467 1 10.5 1C5.25329 1 1 5.25329 1 10.5C1 15.7467 5.25329 20 10.5 20Z" stroke="#828282" stroke-width="1.8" stroke-miterlimit="10"/>
</svg>
