<svg width="14" height="14" viewBox="0 0 14 14" fill="none" xmlns="http://www.w3.org/2000/svg">
<path d="M10.2103 0H3.78967C1.70001 0 0 1.70001 0 3.78967V10.2104C0 12.3 1.70001 14 3.78967 14H10.2104C12.3 14 14 12.3 14 10.2104V3.78967C14 1.70001 12.3 0 10.2103 0ZM7 10.828C4.88919 10.828 3.17198 9.11081 3.17198 7C3.17198 4.88919 4.88919 3.17198 7 3.17198C9.11081 3.17198 10.828 4.88919 10.828 7C10.828 9.11081 9.11081 10.828 7 10.828ZM10.9196 4.07475C10.2958 4.07475 9.78842 3.5674 9.78842 2.94362C9.78842 2.31984 10.2958 1.81238 10.9196 1.81238C11.5433 1.81238 12.0508 2.31984 12.0508 2.94362C12.0508 3.5674 11.5433 4.07475 10.9196 4.07475Z" fill="white"/>
<path d="M7 3.99272C5.34186 3.99272 3.99272 5.34175 3.99272 7C3.99272 8.65814 5.34186 10.0073 7 10.0073C8.65825 10.0073 10.0073 8.65814 10.0073 7C10.0073 5.34175 8.65825 3.99272 7 3.99272Z" fill="white"/>
<path d="M10.9196 2.63322C10.7484 2.63322 10.6092 2.77251 10.6092 2.94362C10.6092 3.11473 10.7484 3.25401 10.9196 3.25401C11.0908 3.25401 11.2301 3.11484 11.2301 2.94362C11.2301 2.7724 11.0908 2.63322 10.9196 2.63322Z" fill="white"/>
</svg>
