<svg width="20" height="18" viewBox="0 0 20 18" fill="none" xmlns="http://www.w3.org/2000/svg">
<path d="M2.08332 7.82609C0.935 7.82609 0 8.70417 0 9.7826V16.0435C0 17.1219 0.935 18 2.08332 18H4.58332C5.0525 18 5.48414 17.8513 5.83332 17.604V7.82609H2.08332Z" fill="#AA40E1"/>
<path d="M20 10.7609C20 10.2905 19.8017 9.85226 19.4575 9.52903C19.8467 9.12913 20.045 8.59302 19.9908 8.03504C19.8933 7.04033 18.9391 6.26085 17.8175 6.26085H12.67C12.925 5.5338 13.3333 4.20104 13.3333 3.13043C13.3333 1.43295 11.7975 0 10.8333 0C9.9675 0 9.34914 0.457827 9.3225 0.476609C9.22418 0.550969 9.16668 0.663665 9.16668 0.782597V3.43641L6.76668 8.31913L6.66668 8.36686V16.7549C7.345 17.0554 8.20332 17.2174 8.75 17.2174H16.3992C17.3067 17.2174 18.1009 16.643 18.2875 15.8502C18.3833 15.4424 18.3275 15.0316 18.1367 14.6747C18.7525 14.3836 19.1667 13.788 19.1667 13.1087C19.1667 12.8317 19.0992 12.5664 18.9709 12.3261C19.5867 12.035 20 11.4394 20 10.7609Z" fill="#AA40E1"/>
</svg>
