<svg width="22" height="18" viewBox="0 0 22 18" fill="none" xmlns="http://www.w3.org/2000/svg">
<path d="M19.3789 3.21429C19.3789 1.44201 17.9331 0 16.1562 0H5.84375C4.06686 0 2.62109 1.44201 2.62109 3.21429V6.42857H0V9H22V6.42857H19.3789V3.21429ZM18.0898 6.42857H3.91016V3.21429C3.91016 2.15083 4.77752 1.28571 5.84375 1.28571H16.1562C17.2225 1.28571 18.0898 2.15083 18.0898 3.21429V6.42857Z" fill="#030927"/>
<path d="M20.5702 10.2857H1.4314L2.72072 18H19.2809L20.5702 10.2857ZM7.77814 16.0714H6.48908V12.2143H7.77814V16.0714ZM11.6453 16.0714H10.3563V12.2143H11.6453V16.0714ZM15.5125 16.0714H14.2235V12.2143H15.5125V16.0714Z" fill="#030927"/>
</svg>
