<svg width="18" height="18" viewBox="0 0 18 18" fill="none" xmlns="http://www.w3.org/2000/svg">
<path d="M8.33596 8.1386C8.20736 8.1751 8.08667 8.23447 7.97989 8.31377L7.97629 8.31666C7.69512 8.52292 7.52887 8.84685 7.52727 9.1915C7.52727 9.79625 8.02648 10.2865 8.64229 10.2865H12.7636C13.2145 10.2863 13.6209 10.0195 13.7935 9.61048C13.9661 9.20143 13.8709 8.73058 13.5524 8.41725C13.4212 8.28882 13.2599 8.19392 13.0827 8.14085C12.9836 8.11124 12.9046 8.03725 12.8697 7.9414C12.8349 7.84555 12.8483 7.73916 12.906 7.65458C13.0037 7.5104 13.0555 7.34087 13.0546 7.16767C13.0539 6.67491 12.6472 6.27568 12.1454 6.27515C11.9842 6.27415 11.8257 6.31649 11.6872 6.3976C11.6097 6.44293 11.5166 6.45483 11.4299 6.43049C11.3431 6.40616 11.2705 6.34774 11.2291 6.26904C10.9734 5.79597 10.4802 5.49277 9.93516 5.47366C9.39015 5.45455 8.87616 5.72243 8.5868 6.17639C8.29744 6.63036 8.27667 7.20143 8.53233 7.67451C8.57986 7.76032 8.58507 7.86271 8.54648 7.95275C8.5079 8.04279 8.42971 8.1107 8.334 8.13732L8.33596 8.1386ZM9.16364 9.00091H12.4364C12.6171 9.00091 12.7636 9.1448 12.7636 9.32231C12.7636 9.49981 12.6171 9.6437 12.4364 9.6437H9.16364C8.98289 9.6437 8.83636 9.49981 8.83636 9.32231C8.83636 9.1448 8.98289 9.00091 9.16364 9.00091Z" fill="#030927"/>
<path d="M0.196364 10.8441C0.281787 10.9026 0.371984 10.9541 0.466036 10.9981C0.7452 11.1382 1.12778 11.3304 1.20633 11.7225C1.25319 11.9654 1.22267 12.2165 1.11895 12.4418C1.062 12.5607 1.00309 12.6635 0.951709 12.7522C0.935673 12.7799 0.918982 12.8107 0.902291 12.8387C1.03811 12.946 1.22335 13.0823 1.30189 13.1389C1.37313 13.1907 1.4199 13.2687 1.4315 13.3551C1.4431 13.4414 1.41853 13.5287 1.36342 13.5969C1.31486 13.6589 1.27255 13.7254 1.23709 13.7955C1.25967 13.8084 1.28225 13.8212 1.30516 13.8337C1.59465 13.956 1.81565 14.1959 1.91062 14.491C1.9587 14.7177 1.94904 14.9525 1.88247 15.1746C1.86742 15.2418 1.85204 15.309 1.8432 15.3761C1.82411 15.5706 1.85041 15.7668 1.92011 15.9498C1.99211 16.2463 2.28879 16.4347 2.59364 16.3776C3.5474 16.1524 4.48714 15.8734 5.40818 15.542H5.41015C5.75182 15.4282 6.06109 15.3218 6.30458 15.2382C6.53073 15.1608 6.70124 15.1023 6.78993 15.0743C8.15073 14.6517 8.42629 14.1693 8.41876 13.8386C8.41474 13.6613 8.55767 13.5143 8.73818 13.5101C8.82553 13.506 8.91078 13.5372 8.97405 13.5965C9.03733 13.6557 9.07308 13.7379 9.07298 13.8238C9.09196 14.6247 8.39095 15.2517 6.98858 15.6879C6.90415 15.7146 6.7392 15.7711 6.52025 15.846L6.22571 15.9476C6.76518 16.5354 7.1587 17.2379 7.37542 18L14.7986 17.9798L14.7767 17.9476C14.6824 17.8143 14.5977 17.6747 14.5231 17.5298C14.3603 17.205 14.2245 16.8678 14.1169 16.5216C13.9183 15.8637 13.7805 15.1896 13.7052 14.5074C13.5763 13.4322 13.7419 12.3426 14.185 11.3513C14.4463 10.8148 14.7695 10.3096 15.1481 9.84554C15.338 9.59421 15.5343 9.33452 15.7045 9.07065C15.788 8.94209 15.8609 8.81032 15.9287 8.67919C15.9199 8.67919 15.9113 8.67919 15.9025 8.67919H14.4468C14.6221 9.2056 14.5281 9.78275 14.1942 10.2291C13.8603 10.6755 13.3276 10.9362 12.7636 10.9293H8.64229C7.96418 10.9299 7.34549 10.5494 7.04998 9.95007C6.75447 9.35069 6.83425 8.63811 7.25531 8.11611C6.60857 7.64323 6.22473 6.90015 6.21818 6.10835C6.21968 5.41597 6.51387 4.75528 7.03047 4.2841C7.25666 4.07587 7.51643 3.9059 7.79924 3.78112C7.67131 3.5024 7.60537 3.2001 7.60582 2.89438C7.63956 1.62173 8.71524 0.61567 10.0113 0.644612C10.3283 0.644544 10.6424 0.703772 10.9368 0.81913C11.0826 0.61119 11.2526 0.420701 11.4434 0.251545C10.7154 0.0499876 9.95839 -0.0313624 9.20324 0.0108192C8.17045 0.0821104 7.14434 0.227339 6.13309 0.445347C4.81222 0.702464 3.82549 1.16367 3.19942 1.81353C2.68271 2.35753 2.28329 2.99847 2.02516 3.69787C1.91656 4.00879 1.82748 4.32596 1.75844 4.6476L1.72571 4.78451C1.64697 5.07671 1.53968 5.36075 1.40531 5.63268C1.34378 5.76767 1.28193 5.90265 1.22858 6.04021C1.19766 6.1099 1.18044 6.18471 1.17785 6.26069C1.19225 6.36482 1.31727 6.47731 1.44949 6.59655C1.7198 6.78377 1.89421 7.07686 1.92764 7.40004C1.92107 7.55251 1.8773 7.7012 1.8 7.8336C1.3902 8.68063 0.888066 9.48152 0.3024 10.2222C0.0530182 10.5214 0 10.64 0 10.6879C0.0605048 10.7457 0.126229 10.798 0.196364 10.8441ZM2.36291 4.93204L2.39564 4.79287C2.45885 4.49833 2.53972 4.20771 2.63782 3.92253C2.86549 3.30407 3.21803 2.73715 3.67429 2.25577C4.17585 1.78094 4.79352 1.44102 5.46775 1.26876C5.57958 1.23523 5.70114 1.26285 5.78662 1.3412C5.87211 1.41955 5.90854 1.53673 5.88219 1.64861C5.85584 1.76049 5.77071 1.85007 5.65887 1.88359C5.09367 2.02424 4.57437 2.30423 4.15015 2.69705C3.75484 3.11495 3.44941 3.60685 3.25211 4.14333C3.16363 4.40369 3.09052 4.66886 3.03316 4.9375L3.00044 5.07666C2.97662 5.19125 2.8913 5.28409 2.77766 5.31907C2.66403 5.35405 2.54001 5.32565 2.45385 5.24492C2.36769 5.16419 2.33299 5.04386 2.36324 4.93075L2.36291 4.93204ZM2.29091 5.78695C2.47166 5.78695 2.61818 5.93084 2.61818 6.10835C2.61818 6.28585 2.47166 6.42974 2.29091 6.42974C2.11016 6.42974 1.96364 6.28585 1.96364 6.10835C1.96364 5.93084 2.11016 5.78695 2.29091 5.78695Z" fill="#030927"/>
<path d="M16.4818 4.25582C16.3835 4.22999 16.3031 4.16079 16.2641 4.06855C16.2252 3.97631 16.2321 3.87152 16.2828 3.78497C16.4986 3.41621 16.6123 2.99833 16.6124 2.57299C16.5622 1.10823 15.3157 -0.0411249 13.824 0.00182015C12.8034 -0.0135519 11.855 0.51738 11.3485 1.38768C11.3065 1.46269 11.2357 1.51814 11.1519 1.54174C11.0681 1.56533 10.9782 1.55511 10.9021 1.51335C10.63 1.3638 10.3231 1.28597 10.0113 1.2874C9.07673 1.2585 8.29413 1.97677 8.26036 2.89438C8.25992 3.20685 8.35801 3.51179 8.54116 3.7673C8.60187 3.85227 8.61704 3.96081 8.58191 4.05871C8.54677 4.15661 8.46565 4.23182 8.36411 4.26064C8.03417 4.35327 7.73133 4.52147 7.48047 4.75141C7.09527 5.10154 6.8752 5.5929 6.87273 6.10835C6.88137 6.74783 7.21767 7.33995 7.76716 7.68319C7.78287 7.67419 7.79727 7.66326 7.81364 7.6549C7.46457 6.65045 7.91711 5.54643 8.87744 5.05959C9.83778 4.57275 11.0163 4.84989 11.648 5.7111C12.0529 5.57714 12.496 5.6127 12.8734 5.80943C13.2508 6.00616 13.5291 6.34673 13.643 6.75114H16.0364C16.2171 6.75114 16.3636 6.89503 16.3636 7.07253C16.3636 7.25004 16.2171 7.39393 16.0364 7.39393H13.6898C13.6768 7.48839 13.6549 7.58146 13.6244 7.67194C13.7683 7.75004 13.9004 7.84738 14.0171 7.96119C14.0403 7.98433 14.0573 8.01133 14.0793 8.03544H15.9022C16.4552 8.03909 16.9886 7.8346 17.3929 7.46399C17.7775 7.11406 17.9973 6.62325 18 6.10835C17.9779 5.22503 17.3557 4.46585 16.4818 4.25582ZM10.709 2.51224C10.6207 2.66711 10.4213 2.72236 10.2636 2.63566C10.1867 2.5929 10.0997 2.57074 10.0113 2.57138C9.77171 2.57138 9.56945 2.71858 9.56945 2.89278C9.56884 2.94095 9.58398 2.98804 9.61265 3.02712C9.71649 3.17241 9.68074 3.37285 9.5328 3.47483C9.46172 3.52376 9.37374 3.54296 9.28825 3.52819C9.20275 3.51343 9.12672 3.4659 9.07691 3.39608C8.97167 3.24918 8.9151 3.074 8.91491 2.89438C8.94884 2.33191 9.43825 1.9015 10.0113 1.9302C10.2115 1.92896 10.4086 1.9788 10.5833 2.07482C10.741 2.16154 10.7973 2.35737 10.709 2.51224ZM15.7163 3.46486C15.6259 3.61885 15.4255 3.67173 15.2687 3.58298C15.1119 3.49422 15.0581 3.29745 15.1485 3.14347C15.2498 2.9698 15.3032 2.77314 15.3033 2.57299C15.2526 1.81859 14.5926 1.24505 13.824 1.2874C13.2806 1.27244 12.7718 1.54837 12.4953 2.00797C12.4081 2.16347 12.209 2.22009 12.0507 2.13444C11.8923 2.0488 11.8347 1.85332 11.9219 1.69783C12.3135 1.03293 13.042 0.629521 13.824 0.644612C14.9543 0.60162 15.9077 1.46324 15.9578 2.57299C15.9577 2.88593 15.8742 3.1934 15.7156 3.46486H15.7163Z" fill="#030927"/>
</svg>
