<svg width="21" height="18" viewBox="0 0 21 18" fill="none" xmlns="http://www.w3.org/2000/svg">
<path d="M19.8719 8.63767C18.9499 12.8105 14.4636 15.9767 9.06819 15.9767C8.28988 15.9767 7.53049 15.9108 6.79799 15.7855C8.28478 17.0554 10.4613 17.8565 12.8864 17.8565C14.2205 17.8565 15.4794 17.614 16.5896 17.1844C17.1298 16.9754 18.9328 17.5619 20.0594 17.9699C20.4376 18.1068 20.8283 17.7543 20.7245 17.3709C20.4344 16.299 20.0522 14.6536 20.3058 14.2235C20.752 13.4666 21 12.6287 21 11.7471C21 10.6117 20.5886 9.54855 19.8719 8.63767Z" fill="#030927"/>
<path d="M18.1364 7.04924C18.1364 10.9424 14.0764 14.0985 9.06818 14.0985C7.70416 14.0985 6.41048 13.8644 5.25 13.445C4.63359 13.2223 2.31206 13.8604 0.97154 14.2643C0.584296 14.381 0.216251 14.0017 0.347123 13.6243C0.737786 12.4979 1.27821 10.7034 0.954546 10.2008C0.343734 9.25244 0 8.18205 0 7.04924C0 3.15605 4.05996 0 9.06818 0C14.0764 0 18.1364 3.15605 18.1364 7.04924Z" fill="#030927"/>
</svg>
