<svg width="19" height="18" viewBox="0 0 19 18" fill="none" xmlns="http://www.w3.org/2000/svg">
<path d="M10.4044 6.84244C10.5179 6.84244 10.6274 6.86048 10.7329 6.89055L12.6998 4.50752C12.8255 4.35519 13.0587 4.32714 13.2108 4.45541C13.3588 4.57766 13.3791 4.79612 13.2554 4.94444L11.3108 7.30141C11.4426 7.4818 11.5217 7.70429 11.5217 7.94479C11.5217 8.39174 11.2499 8.77855 10.8626 8.9509H18.4931C18.7729 8.9509 19 8.72644 19 8.44984V2.10645C19 1.82986 18.7729 1.60539 18.4931 1.60539H8.80043C8.5206 1.60539 8.29349 1.82986 8.29349 2.10645V6.27124L8.75176 6.84445H10.4044V6.84244Z" fill="#030927"/>
<path d="M4.08186 4.10467C5.22863 4.10467 6.15827 3.1858 6.15827 2.05233C6.15827 0.91886 5.22863 0 4.08186 0C2.93509 0 2.00544 0.91886 2.00544 2.05233C2.00544 3.1858 2.93509 4.10467 4.08186 4.10467Z" fill="#030927"/>
<path d="M6.21099 17.4989C6.21099 17.7755 5.98388 18 5.70406 18H4.8524C4.57257 18 4.34546 17.7755 4.34546 17.4989V13.2981C4.34546 13.1498 4.2238 13.0295 4.07375 13.0295C3.92369 13.0295 3.80203 13.1498 3.80203 13.2981V17.4789C3.80203 17.7655 3.56478 18 3.27481 18H2.44141C2.16158 18 1.93447 17.7755 1.93447 17.4989L1.93042 7.35753C1.93042 7.22124 1.81889 7.10903 1.67898 7.10903C1.54109 7.10903 1.42753 7.21926 1.42753 7.35753V11.2578C1.42753 11.5344 1.20043 11.7588 0.920598 11.7588H0.506937C0.227108 11.7588 0 11.5344 0 11.2578V5.91048C0 5.27514 0.521131 4.76205 1.1619 4.76205H5.77908C6.27383 4.76205 6.74226 4.98653 7.05048 5.36934L8.55302 7.24329C8.55302 7.24329 9.72911 7.24329 10.4064 7.2453C10.6862 7.2453 10.9133 7.46977 10.9133 7.74635V8.1452C10.9133 8.42178 10.6862 8.64625 10.4064 8.64625H8.21238C7.99541 8.64625 7.79061 8.54805 7.65678 8.37967L6.73212 7.20519C6.68549 7.14506 6.61046 7.10899 6.5334 7.10899H6.47054C6.33266 7.10899 6.21912 7.21922 6.21912 7.35749L6.21099 17.4989Z" fill="#030927"/>
</svg>
