<svg width="20" height="18" viewBox="0 0 20 18" fill="none" xmlns="http://www.w3.org/2000/svg">
<path d="M17.2739 8.55906C16.3191 9.34087 15.0966 9.81113 13.7657 9.81113C13.305 9.81113 12.8574 9.75474 12.4293 9.64877C13.1947 10.8067 13.6407 12.1908 13.6407 13.6766V15.8589C13.6407 16.6752 13.3408 17.4227 12.8455 18H17.8452C19.0334 18 20 17.0396 20 15.8589V13.6766C20 11.5527 18.9183 9.6753 17.2739 8.55906Z" fill="#030927"/>
<path d="M6.23444 8.64685C8.63389 8.64685 10.5859 6.70743 10.5859 4.3235C10.5859 1.93943 8.63389 0 6.23444 0C3.83499 0 1.88293 1.93943 1.88293 4.3235C1.88293 6.70743 3.83499 8.64685 6.23444 8.64685Z" fill="#030927"/>
<path d="M13.7656 8.64685C16.165 8.64685 18.1172 6.70743 18.1172 4.3235C18.1172 1.93943 16.165 0 13.7656 0C12.6048 0 11.5489 0.453893 10.7678 1.19234C11.3914 2.08102 11.7578 3.16042 11.7578 4.3235C11.7578 5.48643 11.3914 6.56583 10.7678 7.45451C11.5489 8.19296 12.6048 8.64685 13.7656 8.64685Z" fill="#030927"/>
<path d="M9.7426 8.55906C8.788 9.34087 7.56547 9.81113 6.23444 9.81113C4.90342 9.81113 3.68088 9.34102 2.72614 8.55906C1.0817 9.6753 0 11.5527 0 13.6766V15.8589C0 17.0396 0.966645 18 2.155 18H10.3137C11.5021 18 12.4687 17.0396 12.4687 15.8589V13.6766C12.4687 11.5527 11.3872 9.6753 9.7426 8.55906Z" fill="#030927"/>
</svg>
