<svg width="18" height="18" viewBox="0 0 18 18" fill="none" xmlns="http://www.w3.org/2000/svg">
<path d="M3.375 4.6875V1.3125C3.375 1.1175 3.3975 0.93 3.45 0.75H1.3125C0.5925 0.75 0 1.3425 0 2.0625V5.4375C0 6.1575 0.5925 6.75 1.3125 6.75H1.59L2.55 8.025C2.655 8.16 2.8125 8.2425 2.9775 8.25H3C3.165 8.25 3.315 8.1825 3.42 8.055L4.545 6.7725C3.8475 6.3375 3.375 5.565 3.375 4.6875Z" fill="#030927"/>
<path d="M16.6875 0.75H14.55C14.6025 0.93 14.625 1.1175 14.625 1.3125V4.6875C14.625 5.565 14.1525 6.3375 13.455 6.7725L14.58 8.055C14.685 8.1825 14.835 8.25 15 8.25H15.0225C15.1875 8.2425 15.345 8.16 15.45 8.025L16.4025 6.75H16.6875C17.4075 6.75 18 6.1575 18 5.4375V2.0625C18 1.3425 17.4075 0.75 16.6875 0.75Z" fill="#030927"/>
<path d="M9 7.5C8.99325 7.5 8.98575 7.5 8.979 7.5C8.8095 7.49325 8.652 7.41075 8.55 7.275L7.59375 6H5.8125C5.08875 6 4.5 5.41125 4.5 4.6875V1.3125C4.5 0.58875 5.08875 0 5.8125 0H12.1875C12.9113 0 13.5 0.58875 13.5 1.3125V4.6875C13.5 5.41125 12.9113 6 12.1875 6H10.5675L9.423 7.308C9.3165 7.43025 9.162 7.5 9 7.5Z" fill="#030927"/>
<path d="M3 12.75C3.82843 12.75 4.5 12.0784 4.5 11.25C4.5 10.4216 3.82843 9.75 3 9.75C2.17157 9.75 1.5 10.4216 1.5 11.25C1.5 12.0784 2.17157 12.75 3 12.75Z" fill="#030927"/>
<path d="M5.0025 13.8C4.245 14.37 3.75 15.285 3.75 16.3125V16.5H0.5625C0.255 16.5 0 16.245 0 15.9375V15.5625C0 14.4225 0.9225 13.5 2.0625 13.5H3.9375C4.3275 13.5 4.695 13.6125 5.0025 13.8Z" fill="#030927"/>
<path d="M15 12.75C15.8284 12.75 16.5 12.0784 16.5 11.25C16.5 10.4216 15.8284 9.75 15 9.75C14.1716 9.75 13.5 10.4216 13.5 11.25C13.5 12.0784 14.1716 12.75 15 12.75Z" fill="#030927"/>
<path d="M18 15.5625V15.9375C18 16.245 17.745 16.5 17.4375 16.5H14.25V16.3125C14.25 15.285 13.755 14.37 12.9975 13.8C13.305 13.6125 13.6725 13.5 14.0625 13.5H15.9375C17.0775 13.5 18 14.4225 18 15.5625Z" fill="#030927"/>
<path d="M9 13.125C10.2426 13.125 11.25 12.1176 11.25 10.875C11.25 9.63236 10.2426 8.625 9 8.625C7.75736 8.625 6.75 9.63236 6.75 10.875C6.75 12.1176 7.75736 13.125 9 13.125Z" fill="#030927"/>
<path d="M11.0625 14.25H6.9375C5.79975 14.25 4.875 15.1748 4.875 16.3125V17.4375C4.875 17.748 5.127 18 5.4375 18H12.5625C12.873 18 13.125 17.748 13.125 17.4375V16.3125C13.125 15.1748 12.2003 14.25 11.0625 14.25Z" fill="#030927"/>
</svg>
