<svg width="18" height="18" viewBox="0 0 18 18" fill="none" xmlns="http://www.w3.org/2000/svg">
<path d="M17.9432 7.96333C17.9049 7.87182 17.8502 7.78857 17.7805 7.71882L15.5311 5.46956C15.2378 5.17706 14.7638 5.17706 14.4705 5.46956C14.1773 5.7628 14.1773 6.23755 14.4705 6.53005L15.4403 7.4998H11.2506C10.8358 7.4998 10.5005 7.83578 10.5005 8.24978C10.5005 8.66378 10.8358 8.99977 11.2506 8.99977H15.4403L14.4705 9.96952C14.1772 10.2628 14.1772 10.7375 14.4705 11.03C14.6167 11.177 14.8087 11.2498 15.0008 11.2498C15.1928 11.2498 15.3848 11.177 15.5311 11.03L17.7805 8.78075C17.8502 8.71174 17.9049 8.62849 17.9432 8.53624C18.0189 8.35332 18.0189 8.14632 17.9432 7.96333Z" fill="#030927"/>
<path d="M12.7507 10.5C12.3359 10.5 12.0006 10.836 12.0006 11.25V15H9.00048V2.99998C9.00048 2.66923 8.78296 2.37673 8.46569 2.2815L5.86079 1.50001H12.0006V5.25001C12.0006 5.66401 12.3359 6 12.7507 6C13.1654 6 13.5007 5.66401 13.5007 5.25001V0.750022C13.5007 0.335988 13.1654 0 12.7507 0H0.750029C0.723027 0 0.699014 0.01125 0.672786 0.0142383C0.637523 0.018 0.605283 0.0239765 0.571531 0.0322382C0.492776 0.0524882 0.421511 0.0832498 0.354781 0.125226C0.338292 0.135738 0.318041 0.136476 0.30229 0.148465C0.296243 0.153 0.293992 0.161261 0.28798 0.165761C0.206238 0.230238 0.137996 0.308988 0.088493 0.402749C0.0779807 0.422999 0.0757306 0.444761 0.0675036 0.465749C0.0434906 0.522737 0.0172626 0.578249 0.00826216 0.641249C0.00450024 0.663749 0.0112506 0.684737 0.0105123 0.706499C0.00977396 0.72151 0 0.73501 0 0.749987V15.75C0 16.1077 0.252752 16.4152 0.603032 16.485L8.10342 17.985C8.15219 17.9955 8.20169 18 8.25042 18C8.42217 18 8.59093 17.9408 8.72593 17.8297C8.89919 17.6873 9.00045 17.475 9.00045 17.25V16.5H12.7507C13.1654 16.5 13.5007 16.164 13.5007 15.75V11.25C13.5007 10.836 13.1654 10.5 12.7507 10.5Z" fill="#030927"/>
</svg>
