<svg width="18" height="18" viewBox="0 0 18 18" fill="none" xmlns="http://www.w3.org/2000/svg">
<path d="M2.57143 13.8214H3.85746V14.7857H2.57143V13.8214Z" fill="#030927"/>
<path d="M14.4643 10.9286C13.765 10.9286 13.0814 11.1359 12.4999 11.5244C11.9185 11.913 11.4653 12.4652 11.1977 13.1112C10.9301 13.7573 10.8601 14.4682 10.9965 15.1541C11.1329 15.8399 11.4697 16.4699 11.9642 16.9644C12.4586 17.4589 13.0886 17.7956 13.7745 17.9321C14.4604 18.0685 15.1713 17.9985 15.8173 17.7309C16.4634 17.4632 17.0156 17.0101 17.4041 16.4286C17.7926 15.8472 18 15.1636 18 14.4643C17.9989 13.5269 17.626 12.6282 16.9632 11.9654C16.3004 11.3025 15.4017 10.9297 14.4643 10.9286ZM16.776 13.5714L14.0487 16.2987C13.9884 16.3589 13.9067 16.3928 13.8214 16.3928C13.7362 16.3928 13.6545 16.3589 13.5942 16.2987L12.2307 14.9349C12.1721 14.8742 12.1397 14.793 12.1405 14.7088C12.1412 14.6245 12.175 14.5439 12.2346 14.4843C12.2942 14.4247 12.3748 14.3909 12.4591 14.3901C12.5434 14.3894 12.6246 14.4218 12.6852 14.4804L13.8214 15.6169L16.3215 13.1169C16.3821 13.0583 16.4633 13.0259 16.5476 13.0266C16.6319 13.0274 16.7125 13.0612 16.7721 13.1208C16.8317 13.1804 16.8655 13.261 16.8662 13.3453C16.867 13.4295 16.8346 13.5107 16.776 13.5714Z" fill="#030927"/>
<path d="M6.42857 8.03571H7.71461V9H6.42857V8.03571Z" fill="#030927"/>
<path d="M10.2857 8.03571H11.5714V9H10.2857V8.03571Z" fill="#030927"/>
<path d="M2.57143 10.9286H3.85746V11.8929H2.57143V10.9286Z" fill="#030927"/>
<path d="M6.42857 10.9286H7.71461V11.8929H6.42857V10.9286Z" fill="#030927"/>
<path d="M2.57143 8.03571H3.85746V9H2.57143V8.03571Z" fill="#030927"/>
<path d="M3.85714 3.21429C4.02748 3.21378 4.1907 3.14588 4.31115 3.02543C4.4316 2.90499 4.49949 2.74177 4.5 2.57143V0.642857C4.5 0.472361 4.43227 0.308848 4.31171 0.188288C4.19115 0.0677294 4.02764 0 3.85714 0C3.68665 0 3.52313 0.0677294 3.40257 0.188288C3.28202 0.308848 3.21429 0.472361 3.21429 0.642857V2.57143C3.21479 2.74177 3.28269 2.90499 3.40314 3.02543C3.52359 3.14588 3.6868 3.21378 3.85714 3.21429Z" fill="#030927"/>
<path d="M9 3.21429C9.17034 3.21378 9.33356 3.14588 9.45401 3.02543C9.57446 2.90499 9.64235 2.74177 9.64286 2.57143V0.642857C9.64286 0.472361 9.57513 0.308848 9.45457 0.188288C9.33401 0.0677294 9.1705 0 9 0C8.8295 0 8.66599 0.0677294 8.54543 0.188288C8.42487 0.308848 8.35714 0.472361 8.35714 0.642857V2.57143C8.35765 2.74177 8.42554 2.90499 8.54599 3.02543C8.66644 3.14588 8.82966 3.21378 9 3.21429Z" fill="#030927"/>
<path d="M14.1429 3.21429C14.3132 3.21378 14.4764 3.14588 14.5969 3.02543C14.7173 2.90499 14.7852 2.74177 14.7857 2.57143V0.642857C14.7857 0.472361 14.718 0.308848 14.5974 0.188288C14.4769 0.0677294 14.3134 0 14.1429 0C13.9724 0 13.8088 0.0677294 13.6883 0.188288C13.5677 0.308848 13.5 0.472361 13.5 0.642857V2.57143C13.5005 2.74177 13.5684 2.90499 13.6889 3.02543C13.8093 3.14588 13.9725 3.21378 14.1429 3.21429Z" fill="#030927"/>
<path d="M14.1429 8.03571H15.4286V9H14.1429V8.03571Z" fill="#030927"/>
<path d="M17.0357 1.92857H15.4286V2.57143C15.4286 2.91242 15.2931 3.23945 15.052 3.48057C14.8109 3.72168 14.4838 3.85714 14.1429 3.85714C13.8019 3.85714 13.4748 3.72168 13.2337 3.48057C12.9926 3.23945 12.8571 2.91242 12.8571 2.57143V1.92857H10.2857V2.57143C10.2857 2.91242 10.1503 3.23945 9.90914 3.48057C9.66802 3.72168 9.34099 3.85714 9 3.85714C8.65901 3.85714 8.33198 3.72168 8.09086 3.48057C7.84974 3.23945 7.71429 2.91242 7.71429 2.57143V1.92857H5.14286V2.57143C5.14286 2.91242 5.0074 3.23945 4.76628 3.48057C4.52516 3.72168 4.19814 3.85714 3.85714 3.85714C3.51615 3.85714 3.18912 3.72168 2.94801 3.48057C2.70689 3.23945 2.57143 2.91242 2.57143 2.57143V1.92857H0.964286C0.708776 1.92933 0.463949 2.03117 0.283276 2.21185C0.102602 2.39252 0.000763101 2.63735 0 2.89286V5.14286H18V2.89286C17.9992 2.63735 17.8974 2.39252 17.7167 2.21185C17.5361 2.03117 17.2912 1.92933 17.0357 1.92857Z" fill="#030927"/>
<path d="M6.42857 13.8214H7.71461V14.7857H6.42857V13.8214Z" fill="#030927"/>
<path d="M0 5.78571V15.75C0.000763101 16.0055 0.102602 16.2503 0.283276 16.431C0.463949 16.6117 0.708776 16.7135 0.964286 16.7143H10.9488C10.6555 16.2513 10.4562 15.7351 10.3623 15.1951C10.2684 14.655 10.2819 14.1018 10.4018 13.567C10.5218 13.0322 10.7459 12.5262 11.0613 12.078C11.3768 11.6298 11.7775 11.2481 12.2405 10.9548C12.7035 10.6614 13.2197 10.4621 13.7597 10.3682C14.2997 10.2744 14.8529 10.2878 15.3878 10.4078C15.9226 10.5277 16.4285 10.7518 16.8767 11.0673C17.325 11.3828 17.7066 11.7834 18 12.2464V5.78571H0ZM4.5 14.7857C4.5 14.9562 4.43227 15.1197 4.31171 15.2403C4.19115 15.3608 4.02764 15.4286 3.85714 15.4286H2.57143C2.40093 15.4286 2.23742 15.3608 2.11686 15.2403C1.9963 15.1197 1.92857 14.9562 1.92857 14.7857V13.8214C1.92857 13.6509 1.9963 13.4874 2.11686 13.3669C2.23742 13.2463 2.40093 13.1786 2.57143 13.1786H3.85714C4.02764 13.1786 4.19115 13.2463 4.31171 13.3669C4.43227 13.4874 4.5 13.6509 4.5 13.8214V14.7857ZM4.5 11.8929C4.5 12.0634 4.43227 12.2269 4.31171 12.3474C4.19115 12.468 4.02764 12.5357 3.85714 12.5357H2.57143C2.40093 12.5357 2.23742 12.468 2.11686 12.3474C1.9963 12.2269 1.92857 12.0634 1.92857 11.8929V10.9286C1.92857 10.7581 1.9963 10.5946 2.11686 10.474C2.23742 10.3534 2.40093 10.2857 2.57143 10.2857H3.85714C4.02764 10.2857 4.19115 10.3534 4.31171 10.474C4.43227 10.5946 4.5 10.7581 4.5 10.9286V11.8929ZM4.5 9C4.5 9.1705 4.43227 9.33401 4.31171 9.45457C4.19115 9.57513 4.02764 9.64286 3.85714 9.64286H2.57143C2.40093 9.64286 2.23742 9.57513 2.11686 9.45457C1.9963 9.33401 1.92857 9.1705 1.92857 9V8.03571C1.92857 7.86522 1.9963 7.7017 2.11686 7.58114C2.23742 7.46059 2.40093 7.39286 2.57143 7.39286H3.85714C4.02764 7.39286 4.19115 7.46059 4.31171 7.58114C4.43227 7.7017 4.5 7.86522 4.5 8.03571V9ZM8.35714 14.7857C8.35714 14.9562 8.28941 15.1197 8.16885 15.2403C8.0483 15.3608 7.88478 15.4286 7.71429 15.4286H6.42857C6.25808 15.4286 6.09456 15.3608 5.974 15.2403C5.85344 15.1197 5.78571 14.9562 5.78571 14.7857V13.8214C5.78571 13.6509 5.85344 13.4874 5.974 13.3669C6.09456 13.2463 6.25808 13.1786 6.42857 13.1786H7.71429C7.88478 13.1786 8.0483 13.2463 8.16885 13.3669C8.28941 13.4874 8.35714 13.6509 8.35714 13.8214V14.7857ZM8.35714 11.8929C8.35714 12.0634 8.28941 12.2269 8.16885 12.3474C8.0483 12.468 7.88478 12.5357 7.71429 12.5357H6.42857C6.25808 12.5357 6.09456 12.468 5.974 12.3474C5.85344 12.2269 5.78571 12.0634 5.78571 11.8929V10.9286C5.78571 10.7581 5.85344 10.5946 5.974 10.474C6.09456 10.3534 6.25808 10.2857 6.42857 10.2857H7.71429C7.88478 10.2857 8.0483 10.3534 8.16885 10.474C8.28941 10.5946 8.35714 10.7581 8.35714 10.9286V11.8929ZM8.35714 9C8.35714 9.1705 8.28941 9.33401 8.16885 9.45457C8.0483 9.57513 7.88478 9.64286 7.71429 9.64286H6.42857C6.25808 9.64286 6.09456 9.57513 5.974 9.45457C5.85344 9.33401 5.78571 9.1705 5.78571 9V8.03571C5.78571 7.86522 5.85344 7.7017 5.974 7.58114C6.09456 7.46059 6.25808 7.39286 6.42857 7.39286H7.71429C7.88478 7.39286 8.0483 7.46059 8.16885 7.58114C8.28941 7.7017 8.35714 7.86522 8.35714 8.03571V9ZM11.5714 10.9286H10.2857V11.8929C10.371 11.8929 10.4527 11.9267 10.513 11.987C10.5733 12.0473 10.6071 12.129 10.6071 12.2143C10.6071 12.2995 10.5733 12.3813 10.513 12.4416C10.4527 12.5018 10.371 12.5357 10.2857 12.5357C10.1152 12.5357 9.9517 12.468 9.83115 12.3474C9.71059 12.2269 9.64286 12.0634 9.64286 11.8929V10.9286C9.64286 10.7581 9.71059 10.5946 9.83115 10.474C9.9517 10.3534 10.1152 10.2857 10.2857 10.2857H11.5714C11.6567 10.2857 11.7384 10.3196 11.7987 10.3799C11.859 10.4401 11.8929 10.5219 11.8929 10.6071C11.8929 10.6924 11.859 10.7741 11.7987 10.8344C11.7384 10.8947 11.6567 10.9286 11.5714 10.9286ZM12.2143 9C12.2143 9.1705 12.1466 9.33401 12.026 9.45457C11.9054 9.57513 11.7419 9.64286 11.5714 9.64286H10.2857C10.1152 9.64286 9.9517 9.57513 9.83115 9.45457C9.71059 9.33401 9.64286 9.1705 9.64286 9V8.03571C9.64286 7.86522 9.71059 7.7017 9.83115 7.58114C9.9517 7.46059 10.1152 7.39286 10.2857 7.39286H11.5714C11.7419 7.39286 11.9054 7.46059 12.026 7.58114C12.1466 7.7017 12.2143 7.86522 12.2143 8.03571V9ZM16.0714 9C16.0714 9.1705 16.0037 9.33401 15.8831 9.45457C15.7626 9.57513 15.5991 9.64286 15.4286 9.64286H14.1429C13.9724 9.64286 13.8088 9.57513 13.6883 9.45457C13.5677 9.33401 13.5 9.1705 13.5 9V8.03571C13.5 7.86522 13.5677 7.7017 13.6883 7.58114C13.8088 7.46059 13.9724 7.39286 14.1429 7.39286H15.4286C15.5991 7.39286 15.7626 7.46059 15.8831 7.58114C16.0037 7.7017 16.0714 7.86522 16.0714 8.03571V9Z" fill="#030927"/>
</svg>
