<svg width="18" height="18" viewBox="0 0 18 18" fill="none" xmlns="http://www.w3.org/2000/svg">
<path fill-rule="evenodd" clip-rule="evenodd" d="M2.8904 2.3914C3.29924 2.01325 3.91583 2.0107 4.37126 2.33122L4.79843 2.63186C5.21405 2.92437 5.75879 2.93428 6.2234 2.72829C6.324 2.68368 6.42587 2.64143 6.52894 2.6016C7.00293 2.41842 7.38104 2.02626 7.46808 1.52561L7.5575 1.0113C7.65293 0.46238 8.09105 0.0281895 8.64779 0.00676519C8.76464 0.00226882 8.88205 0 9 0C9.11795 0 9.23536 0.00226883 9.35221 0.00676524C9.90895 0.0281896 10.3471 0.462381 10.4425 1.0113L10.5319 1.52561C10.619 2.02626 10.9971 2.41842 11.4711 2.6016C11.5741 2.64143 11.676 2.68369 11.7766 2.72829C12.2412 2.93428 12.7859 2.92437 13.2016 2.63187L13.6287 2.33123C14.0842 2.0107 14.7008 2.01325 15.1096 2.3914C15.2824 2.55119 15.4488 2.71766 15.6086 2.89042C15.9868 3.29926 15.9893 3.91584 15.6688 4.37127L15.3681 4.79845C15.0756 5.21407 15.0657 5.75881 15.2717 6.22342C15.3163 6.32401 15.3586 6.42588 15.3984 6.52895C15.5816 7.00294 15.9738 7.38105 16.4744 7.46809L16.9887 7.55751C17.5376 7.65294 17.9718 8.09106 17.9932 8.64781C17.9977 8.76465 18 8.88206 18 9C18 9.11795 17.9977 9.23538 17.9932 9.35223C17.9718 9.90897 17.5376 10.3471 16.9887 10.4425L16.4744 10.5319C15.9737 10.619 15.5816 10.9971 15.3984 11.4711C15.3586 11.5741 15.3163 11.676 15.2717 11.7766C15.0657 12.2412 15.0756 12.786 15.3681 13.2016L15.6688 13.6287C15.9893 14.0842 15.9868 14.7008 15.6086 15.1096C15.4488 15.2824 15.2823 15.4488 15.1096 15.6086C14.7007 15.9868 14.0842 15.9893 13.6287 15.6688L13.2016 15.3682C12.7859 15.0756 12.2412 15.0657 11.7766 15.2717C11.676 15.3163 11.5741 15.3586 11.4711 15.3984C10.9971 15.5816 10.619 15.9738 10.5319 16.4744L10.4425 16.9887C10.3471 17.5376 9.90895 17.9718 9.35221 17.9932C9.23537 17.9977 9.11795 18 9 18C8.88205 18 8.76463 17.9977 8.64779 17.9932C8.09105 17.9718 7.65293 17.5376 7.55749 16.9887L7.46808 16.4744C7.38104 15.9738 7.00293 15.5816 6.52894 15.3984C6.42587 15.3586 6.32401 15.3163 6.22341 15.2717C5.7588 15.0657 5.21407 15.0756 4.79845 15.3682L4.37127 15.6688C3.91584 15.9893 3.29926 15.9868 2.89042 15.6086C2.71766 15.4488 2.55119 15.2824 2.3914 15.1096C2.01324 14.7008 2.0107 14.0842 2.33122 13.6287L2.63186 13.2016C2.92436 12.786 2.93428 12.2412 2.72828 11.7766C2.68368 11.676 2.64143 11.5741 2.6016 11.4711C2.41842 10.9971 2.02625 10.619 1.52561 10.5319L1.0113 10.4425C0.462382 10.3471 0.0281912 9.90897 0.00676587 9.35222C0.00226905 9.23537 0 9.11795 0 9C0 8.88206 0.00226864 8.76465 0.00676467 8.64781C0.0281882 8.09106 0.462379 7.65294 1.0113 7.55751L1.5256 7.46809C2.02625 7.38105 2.41841 7.00294 2.60159 6.52895C2.64142 6.42588 2.68368 6.32401 2.72828 6.22342C2.93427 5.75881 2.92436 5.21407 2.63185 4.79845L2.33121 4.37127C2.01069 3.91584 2.01323 3.29926 2.39139 2.89042C2.55117 2.71766 2.71765 2.55119 2.8904 2.3914ZM12.4286 9C12.4286 10.8936 10.8935 12.4286 9 12.4286C7.10645 12.4286 5.57143 10.8936 5.57143 9C5.57143 7.10646 7.10645 5.57143 9 5.57143C10.8935 5.57143 12.4286 7.10646 12.4286 9Z" fill="#030927"/>
</svg>
