<svg width="26" height="14" viewBox="0 0 26 14" fill="none" xmlns="http://www.w3.org/2000/svg">
<path d="M1.21237 6.03706H22.0965L17.703 1.6429C17.3258 1.26558 17.3258 0.660303 17.703 0.282987C18.0803 -0.094329 18.6855 -0.094329 19.0627 0.282987L25.0989 6.32004C25.4762 6.69736 25.4762 7.30264 25.0989 7.67996L19.0627 13.717C18.8741 13.9057 18.6305 14 18.379 14C18.1275 14 17.8838 13.9057 17.6952 13.717C17.3179 13.3397 17.3179 12.7344 17.6952 12.3571L22.0887 7.96294H1.2045C0.670053 7.96294 0.23778 7.5306 0.23778 6.99607C0.24564 6.46154 0.677916 6.03706 1.21237 6.03706Z" fill="#828282"/>
</svg>
