<svg width="14" height="14" viewBox="0 0 14 14" fill="none" xmlns="http://www.w3.org/2000/svg">

<path d="M10.6428 9.26057C10.1854 8.80905 9.61448 8.80905 9.16004 9.26057C8.81339 9.60431 8.46673 9.94805 8.12591 10.2976C8.03269 10.3938 7.95404 10.4141 7.84043 10.3501C7.61612 10.2277 7.37725 10.1287 7.16169 9.99466C6.15668 9.36253 5.31481 8.54979 4.56907 7.63509C4.19911 7.18066 3.86994 6.69418 3.63981 6.14652C3.5932 6.03583 3.60194 5.963 3.69224 5.8727C4.03889 5.5377 4.37681 5.19396 4.71764 4.85022C5.19246 4.37248 5.19246 3.81317 4.71472 3.33252C4.44381 3.05869 4.17289 2.79069 3.90198 2.51686C3.62233 2.23721 3.34559 1.95464 3.06302 1.6779C2.60567 1.23221 2.03472 1.23221 1.58028 1.68082C1.23071 2.02456 0.895713 2.37704 0.54032 2.71495C0.211146 3.02665 0.0451017 3.40826 0.0101451 3.85395C-0.0452029 4.5793 0.132493 5.26387 0.383016 5.93096C0.895713 7.31174 1.67641 8.53814 2.62315 9.66258C3.90198 11.1832 5.42842 12.3863 7.21412 13.2544C8.01812 13.6447 8.85126 13.9448 9.75721 13.9943C10.3806 14.0292 10.9224 13.8719 11.3565 13.3855C11.6536 13.0534 11.9886 12.7504 12.3032 12.4329C12.7693 11.961 12.7722 11.39 12.309 10.9239C11.7556 10.3675 11.1992 9.81405 10.6428 9.26057Z" fill="white"/>
<path d="M10.0863 6.93899L11.1613 6.75547C10.9923 5.76794 10.5262 4.87364 9.81833 4.16285C9.06968 3.4142 8.12294 2.94228 7.08007 2.79663L6.92859 3.87737C7.7355 3.99098 8.46959 4.35511 9.04929 4.93481C9.59694 5.48246 9.95525 6.17577 10.0863 6.93899Z" fill="white"/>
<path d="M11.7672 2.26635C10.5263 1.02539 8.95615 0.241783 7.22289 0L7.07141 1.08074C8.56872 1.29048 9.9262 1.96922 10.9982 3.03831C12.0149 4.05497 12.6819 5.33962 12.9237 6.75245L13.9986 6.56893C13.7161 4.9318 12.9441 3.44614 11.7672 2.26635Z" fill="white"/>
</svg>
