<svg width="26" height="14" viewBox="0 0 26 14" fill="none" xmlns="http://www.w3.org/2000/svg">
<path d="M24.3297 6.03706H3.44558L7.83907 1.6429C8.21633 1.26558 8.21633 0.660303 7.83907 0.282987C7.46181 -0.094329 6.85663 -0.094329 6.47937 0.282987L0.443223 6.32004C0.0659636 6.69736 0.0659636 7.30264 0.443223 7.67996L6.47937 13.717C6.668 13.9057 6.91164 14 7.16315 14C7.41466 14 7.6583 13.9057 7.84693 13.717C8.22419 13.3397 8.22419 12.7344 7.84693 12.3571L3.45344 7.96294H24.3376C24.8721 7.96294 25.3043 7.5306 25.3043 6.99607C25.2965 6.46154 24.8642 6.03706 24.3297 6.03706Z" fill="#828282"/>
</svg>
