<svg width="130" height="181" viewBox="0 0 130 181" fill="none" xmlns="http://www.w3.org/2000/svg">
<path opacity="0.05" d="M119.77 56.9044C119.81 57.6445 119.757 58.3976 119.578 59.1458L103.54 125.512C102.732 128.856 99.8351 131.207 96.5052 131.225L0.280899 131.728C0.268265 131.728 0.256607 131.728 0.243973 131.728H-95.9813C-99.3287 131.728 -102.246 129.369 -103.054 126.008L-119.092 59.3901C-119.276 58.6219 -119.33 57.8476 -119.283 57.0884C-125.487 55.0662 -130 49.06 -130 41.9819C-130 33.2487 -123.133 26.1444 -114.692 26.1444C-106.25 26.1444 -99.3832 33.2487 -99.3832 41.9819C-99.3832 46.9001 -101.561 51.3004 -104.972 54.2075L-84.8932 75.1371C-79.8185 80.4273 -72.7767 83.4601 -65.5725 83.4601C-57.0542 83.4601 -48.9325 79.275 -43.818 72.2632L-10.8199 27.0293C-13.5919 24.1635 -15.3084 20.2036 -15.3084 15.8375C-15.3084 7.10425 -8.4415 0 0 0C8.4415 0 15.3084 7.10425 15.3084 15.8375C15.3084 20.0729 13.6833 23.9171 11.0561 26.7619C11.0648 26.7739 11.0755 26.784 11.0843 26.7971L43.8433 72.1556C48.9558 79.2348 57.1067 83.4611 65.6493 83.4611C72.9196 83.4611 79.7563 80.5319 84.897 75.2125L105.102 54.3091C101.62 51.403 99.3832 46.9604 99.3832 41.9819C99.3832 33.2487 106.25 26.1444 114.692 26.1444C123.133 26.1444 130 33.2487 130 41.9819C130 48.871 125.719 54.7304 119.77 56.9044ZM101.975 155.358C101.975 151.193 98.7116 147.817 94.6857 147.817H-93.8751C-97.9009 147.817 -101.165 151.193 -101.165 155.358V173.458C-101.165 177.623 -97.9009 181 -93.8751 181H94.6857C98.7116 181 101.975 177.623 101.975 173.458V155.358Z" fill="#AA40E1"/>
</svg>
