<svg width="19" height="16" viewBox="0 0 19 16" fill="none" xmlns="http://www.w3.org/2000/svg">
<path d="M18.2334 6.88625L18.2271 6.88356L1.32023 0.0702667C1.17802 0.0124373 1.02328 -0.0102427 0.869848 0.00425552C0.716414 0.0187538 0.569071 0.069978 0.441 0.153346C0.305689 0.239491 0.194544 0.356968 0.117564 0.495209C0.0405835 0.63345 0.000184117 0.788117 2.1615e-07 0.945294V5.30274C7.54048e-05 5.51761 0.0772973 5.72573 0.218356 5.89121C0.359415 6.0567 0.555474 6.1692 0.772739 6.20931L9.99375 7.8659C10.03 7.87257 10.0627 7.89132 10.0862 7.91892C10.1097 7.94652 10.1226 7.98122 10.1226 8.01706C10.1226 8.05289 10.1097 8.0876 10.0862 8.11519C10.0627 8.14279 10.03 8.16154 9.99375 8.16821L0.773135 9.82481C0.55593 9.86481 0.359883 9.97716 0.218761 10.1425C0.077639 10.3078 0.000277118 10.5158 2.1615e-07 10.7306V15.0888C-0.000104918 15.2389 0.0381438 15.3867 0.111314 15.5189C0.184484 15.651 0.290287 15.7635 0.419227 15.8461C0.574328 15.9463 0.756352 15.9998 0.942568 16C1.07203 15.9999 1.20016 15.9747 1.31944 15.9258L18.2259 9.15132L18.2334 9.14786C18.461 9.05284 18.6549 8.89507 18.7911 8.69409C18.9274 8.49311 19 8.25772 19 8.01706C19 7.77639 18.9274 7.54101 18.7911 7.34002C18.6549 7.13904 18.461 6.98128 18.2334 6.88625Z" fill="#FEFFFF"/>
</svg>
