<svg width="16" height="16" viewBox="0 0 16 16" fill="none" xmlns="http://www.w3.org/2000/svg">
<path d="M8 0C3.582 0 0 3.582 0 8C0 12.419 3.582 16 8 16C12.418 16 16 12.419 16 8C16 3.582 12.418 0 8 0ZM8 15C4.135 15 1 11.866 1 8C1 4.134 4.135 1 8 1C11.866 1 15 4.134 15 8C15 11.866 11.866 15 8 15ZM5 6C5.553 6 6 5.553 6 5C6 4.448 5.553 4 5 4C4.447 4 4 4.448 4 5C4 5.553 4.447 6 5 6ZM11 4C10.447 4 10 4.448 10 5C10 5.553 10.447 6 11 6C11.553 6 12 5.553 12 5C12 4.448 11.553 4 11 4ZM8 12C6.693 12 5.584 11.165 5.172 10H4.12601C4.57001 11.726 6.137 13 8 13C9.863 13 11.43 11.726 11.874 10H10.828C10.416 11.165 9.307 12 8 12Z" fill="#333333"/>
</svg>
