<svg width="18" height="17" viewBox="0 0 18 17" fill="none" xmlns="http://www.w3.org/2000/svg">
<path fill-rule="evenodd" clip-rule="evenodd" d="M1.17157 1.13254C0 2.26507 0 4.08787 0 7.73345V15.1241C0 15.8807 0 16.2589 0.10346 16.4614C0.325499 16.8958 0.84595 17.1042 1.32073 16.9488C1.54195 16.8764 1.81865 16.6089 2.37204 16.0739C2.82078 15.6402 3.04518 15.4232 3.29242 15.2481C3.81055 14.881 4.41251 14.64 5.04737 14.5454C5.35032 14.5002 5.66763 14.5002 6.30224 14.5002H10.5C13.7875 14.5002 15.4312 14.5002 16.5376 13.6225C16.7401 13.4618 16.9258 13.2823 17.092 13.0865C18 12.017 18 10.4281 18 7.25011C18 4.07216 18 2.48319 17.092 1.4137C16.9258 1.21791 16.7401 1.03839 16.5376 0.877706C15.4312 0 13.7875 0 10.5 0H8C4.22876 0 2.34315 0 1.17157 1.13254ZM4.5 8.70013C5.32843 8.70013 6 8.05093 6 7.25011C6 6.44928 5.32843 5.80009 4.5 5.80009C3.67157 5.80009 3 6.44928 3 7.25011C3 8.05093 3.67157 8.70013 4.5 8.70013ZM10.5 7.25011C10.5 8.05093 9.82843 8.70013 9 8.70013C8.17157 8.70013 7.5 8.05093 7.5 7.25011C7.5 6.44928 8.17157 5.80009 9 5.80009C9.82843 5.80009 10.5 6.44928 10.5 7.25011ZM13.5 8.70013C14.3284 8.70013 15 8.05093 15 7.25011C15 6.44928 14.3284 5.80009 13.5 5.80009C12.6716 5.80009 12 6.44928 12 7.25011C12 8.05093 12.6716 8.70013 13.5 8.70013Z" fill="#030927"/>
</svg>
