<svg width="24" height="23" viewBox="0 0 24 23" fill="none" xmlns="http://www.w3.org/2000/svg">
<path d="M12.2723 1.08C12.1685 0.839999 11.8315 0.84 11.7277 1.08L9.20596 6.90973C8.9026 7.61104 8.24216 8.09289 7.48071 8.16562L1.17081 8.76838C0.91494 8.79283 0.804075 9.11696 1.00292 9.29296L5.75432 13.4987C6.3266 14.0052 6.57819 14.7828 6.41253 15.5284L5.0345 21.7307C4.97631 21.9926 5.25571 22.185 5.47473 22.0554L10.933 18.8249C11.5911 18.4354 12.4089 18.4354 13.067 18.8249L18.5253 22.0554C18.7443 22.185 19.0237 21.9926 18.9655 21.7307L17.5875 15.5284C17.4218 14.7828 17.6734 14.0053 18.2457 13.4987L22.9971 9.29296C23.1959 9.11696 23.0851 8.79283 22.8292 8.76838L16.5193 8.16562C15.7578 8.09289 15.0974 7.61104 14.794 6.90973L15.6201 6.55242L14.794 6.90973L12.2723 1.08Z" stroke="#AA40E1" stroke-width="1.8"/>
</svg>
