<svg width="24" height="23" viewBox="0 0 24 23" fill="none" xmlns="http://www.w3.org/2000/svg">
<path d="M13.0984 0.722693C12.6816 -0.240897 11.3184 -0.240898 10.9016 0.722693L8.37993 6.55242C8.20645 6.95346 7.8292 7.22824 7.39512 7.2697L1.08522 7.87246C0.0422668 7.97209 -0.37896 9.27172 0.406395 9.96688L5.15779 14.1726C5.48466 14.4619 5.62876 14.9065 5.53396 15.3332L4.15593 21.5354C3.92816 22.5606 5.03094 23.3638 5.93312 22.8299L11.3914 19.5994C11.7668 19.3772 12.2332 19.3772 12.6086 19.5994L18.0669 22.8299C18.9691 23.3638 20.0718 22.5606 19.8441 21.5355L18.466 15.3332C18.3712 14.9065 18.5153 14.4619 18.8422 14.1726L23.5936 9.96688C24.379 9.27172 23.9577 7.97209 22.9148 7.87246L16.6049 7.2697C16.1708 7.22824 15.7935 6.95346 15.6201 6.55242L13.0984 0.722693Z" fill="#AA40E1"/>
</svg>
