<svg width="16" height="16" viewBox="0 0 16 16" fill="none" xmlns="http://www.w3.org/2000/svg">
<path d="M7.35928 1.42419C7.60242 0.858604 8.39758 0.858603 8.64072 1.42419L10.1117 4.84599C10.2129 5.08138 10.433 5.24266 10.6862 5.267L14.367 5.62079C14.9753 5.67927 15.2211 6.44209 14.7629 6.85012L11.9913 9.31871C11.8006 9.48853 11.7166 9.74948 11.7719 9.99992L12.5757 13.6404C12.7086 14.2421 12.0653 14.7136 11.539 14.4001L8.35504 12.504C8.13601 12.3736 7.86399 12.3736 7.64496 12.504L4.46099 14.4001C3.93472 14.7136 3.29142 14.2421 3.42429 13.6404L4.22814 9.99992C4.28344 9.74948 4.19938 9.48853 4.00872 9.31871L1.23706 6.85012C0.77894 6.4421 1.02466 5.67927 1.63305 5.62079L5.31382 5.267C5.56703 5.24266 5.7871 5.08138 5.88829 4.84599L7.35928 1.42419Z" stroke="#FFA700"/>
</svg>
