<svg width="13" height="13" viewBox="0 0 13 13" fill="none" xmlns="http://www.w3.org/2000/svg">
<path d="M0.778474 0H6.22573C6.65538 0 6.73417 0.188185 7.14391 0.61696L12.5063 5.96757C13.1646 6.62395 13.1646 7.68877 12.5063 8.34557L8.33538 12.5074C7.67711 13.1642 6.61031 13.1642 5.95206 12.5074L0.589234 7.15679C0.244062 6.81213 0 6.64102 0 6.21184V0.776679C0.000403404 0.347501 0.348825 0 0.778474 0ZM6.54818 11.9128C6.8771 12.2412 7.4107 12.2412 7.74003 11.9128L11.9106 7.751C12.2395 7.42261 12.2395 6.89018 11.9106 6.56179L11.3083 5.96109L5.95854 11.3243L6.54818 11.9128ZM0.778474 5.82369C0.778474 6.03828 0.975424 6.35287 1.18537 6.56217L5.3563 10.724L10.7126 5.36647L6.54818 1.21156C6.3569 1.02054 6.05194 0.776679 5.8371 0.776679H1.16791C0.953098 0.776679 0.778877 0.950642 0.778877 1.16483V5.82369H0.778474ZM5.05822 2.69786C5.71649 3.35466 5.71649 4.41908 5.05822 5.07586C4.39998 5.73266 3.33317 5.73266 2.6749 5.07586C2.01663 4.41906 2.01663 3.35464 2.6749 2.69786C3.33317 2.04108 4.40036 2.04108 5.05822 2.69786ZM3.27102 4.48127C3.59996 4.80966 4.13355 4.80966 4.46289 4.48127C4.79181 4.15288 4.79181 3.62044 4.46289 3.29205C4.13397 2.96367 3.60037 2.96367 3.27102 3.29205C2.94171 3.62046 2.94171 4.15288 3.27102 4.48127Z" fill="white"/>
</svg>
