<svg width="166" height="181" viewBox="0 0 166 181" fill="none" xmlns="http://www.w3.org/2000/svg">
<g opacity="0.05">
<path d="M79.5913 68.8046C80.7331 68.8046 81.8336 68.986 82.8936 69.2883L102.666 45.3256C103.93 43.7939 106.274 43.5117 107.803 44.8016C109.291 46.031 109.495 48.2277 108.252 49.7191L88.7031 73.4198C90.0281 75.2336 90.8231 77.4709 90.8231 79.8893C90.8231 84.3836 88.0916 88.2732 84.1982 90.0062H160.904C163.717 90.0062 166 87.7492 166 84.9678V21.1815C166 18.4003 163.717 16.1431 160.904 16.1431H63.4674C60.6544 16.1431 58.3714 18.4003 58.3714 21.1815V63.0608L62.9782 68.8247H79.5913V68.8046Z" fill="#AA40E1"/>
<path d="M16.0334 41.2747C27.5615 41.2747 36.9068 32.035 36.9068 20.6373C36.9068 9.23965 27.5615 0 16.0334 0C4.50533 0 -4.84002 9.23965 -4.84002 20.6373C-4.84002 32.035 4.50533 41.2747 16.0334 41.2747Z" fill="#AA40E1"/>
<path d="M37.4368 175.962C37.4368 178.743 35.1538 181 32.3408 181H23.7794C20.9664 181 18.6833 178.743 18.6833 175.962V133.72C18.6833 132.228 17.4603 131.019 15.9519 131.019C14.4434 131.019 13.2204 132.228 13.2204 133.72V175.76C13.2204 178.642 10.8354 181 7.92049 181H-0.457418C-3.27044 181 -5.55347 178.743 -5.55347 175.962L-5.59424 73.9841C-5.59424 72.6136 -6.71537 71.4852 -8.12188 71.4852C-9.508 71.4852 -10.6495 72.5937 -10.6495 73.9841V113.203C-10.6495 115.984 -12.9326 118.242 -15.7456 118.242H-19.9039C-22.717 118.242 -25 115.984 -25 113.203V59.4331C-25 53.0444 -19.7613 47.8851 -13.3199 47.8851H33.095C38.0685 47.8851 42.7775 50.1423 45.8759 53.9917L60.9804 72.8353C60.9804 72.8353 72.8032 72.8353 79.6115 72.8555C82.4245 72.8555 84.7076 75.1127 84.7076 77.8939V81.9045C84.7076 84.6857 82.4245 86.9429 79.6115 86.9429H57.556C55.3749 86.9429 53.3161 85.9554 51.9708 84.2622L42.6756 72.4522C42.2067 71.8476 41.4525 71.4848 40.6779 71.4848H40.046C38.6599 71.4848 37.5186 72.5933 37.5186 73.9837L37.4368 175.962Z" fill="#AA40E1"/>
</g>
</svg>
