<svg width="15" height="12" viewBox="0 0 15 12" fill="none" xmlns="http://www.w3.org/2000/svg">
<path d="M14.5468 0C14.4947 0 14.4376 0.00968132 14.3831 0.029044L0.292235 5.25212C-0.104759 5.39976 -0.0948342 5.95159 0.307123 6.08471L3.57488 7.16176L5.54497 11.0077C5.54497 11.0077 5.54497 11.0101 5.54745 11.0101L5.55241 11.0198H5.55489C5.58963 11.09 5.66407 11.1359 5.74347 11.1359C5.79061 11.1359 5.83775 11.1214 5.87993 11.0875L7.72596 9.56031L5.66407 8.0355L5.82535 10.0395L4.34406 7.048L12.2194 2.43485L5.66407 8.03792L10.7654 11.8161C10.9366 11.9419 11.1327 12 11.3237 12C11.7282 12 12.1177 11.741 12.2269 11.3126L14.986 0.551835C15.0604 0.258975 14.8272 0 14.5468 0Z" fill="white" />
</svg>
