<svg width="14" height="10" viewBox="0 0 14 10" fill="none" xmlns="http://www.w3.org/2000/svg">
<path d="M6.04158 6.0498L8.3532 4.87751L6.04158 3.68468V6.0498Z" fill="white"/>
<path d="M13.897 2.36019L13.8964 2.35414C13.8845 2.24787 13.7665 1.30253 13.2792 0.82185C12.716 0.256356 12.0775 0.187659 11.7704 0.15472C11.745 0.1519 11.7217 0.149482 11.7009 0.146863L11.6764 0.144446C9.82559 0.0175269 7.03044 0.000201459 7.00246 0H6.99754C6.96956 0.000201459 4.17441 0.0175269 2.30692 0.144446L2.28224 0.146863C2.26237 0.149382 2.24048 0.151698 2.21666 0.154317C1.9131 0.187356 1.28142 0.256155 0.716599 0.841996C0.252502 1.31774 0.118347 2.24274 0.104568 2.34669L0.102966 2.36019C0.0988007 2.40441 0 3.45713 0 4.51398V5.50193C0 6.55879 0.0988007 7.61151 0.102966 7.65573L0.103714 7.66248C0.11557 7.76693 0.23349 8.69485 0.718521 9.17583C1.24809 9.72249 1.91769 9.79471 2.27786 9.8336C2.33479 9.83974 2.38393 9.84508 2.41725 9.85062L2.44962 9.85475C3.51826 9.95074 6.86884 9.99799 7.01089 9.9999L7.01517 10L7.01933 9.9999C7.04742 9.9998 9.84247 9.98247 11.6933 9.85545L11.7178 9.85314C11.741 9.85022 11.7673 9.8476 11.7962 9.84478C12.0981 9.81456 12.7263 9.7518 13.2834 9.17392C13.7475 8.69818 13.8817 7.77318 13.8954 7.66923L13.897 7.65573C13.9012 7.61151 14 6.55879 14 5.50193V4.51398C14 3.45713 13.9012 2.40451 13.897 2.36019ZM9.15129 5.35124L6.05835 6.9197C5.97343 6.96281 5.88115 6.98427 5.78908 6.98427C5.68857 6.98427 5.58827 6.95868 5.4978 6.90781C5.32455 6.81011 5.22116 6.63816 5.22116 6.44788V3.28337C5.22116 3.09219 5.3252 2.91994 5.49951 2.82243C5.67383 2.72503 5.88414 2.7215 6.06198 2.81327L9.15492 4.40932C9.33789 4.50371 9.45111 4.68462 9.45036 4.88134C9.44962 5.07796 9.33501 5.25807 9.15129 5.35124Z" fill="white"/>
</svg>
